<?xml version="1.0" encoding="UTF-8" standalone="no"?>
<!DOCTYPE svg PUBLIC "-//W3C//DTD SVG 1.1//EN" "http://www.w3.org/Graphics/SVG/1.1/DTD/svg11.dtd">
<svg xmlns="http://www.w3.org/2000/svg" xmlns:xlink="http://www.w3.org/1999/xlink" version="1.1" width="595.276pt" height="841.89pt" viewBox="0 0 595.276 841.89">
<g enable-background="new">
<text xml:space="preserve" transform="matrix(1 0 -0 1 0 841.89)" font-size="17.2154" font-family="CMBX12" font-weight="bold"><tspan y="-759.068" x="114.304 123.99627 129.38469 158.44429 176.81313 185.64463 193.18497 203.9446 214.17055 224.93018 234.62245 240.01088 249.70316 259.39543">0.3Methodology</tspan></text>
<text xml:space="preserve" transform="matrix(1 0 -0 1 0 841.89)" font-size="14.3462" font-family="CMBX12" font-weight="bold"><tspan y="-724.315" x="114.304 122.38091 126.87128 134.94818 139.43854 163.65493 174.68715 181.2864 188.64601 194.02584 202.9922 209.59146 218.1131 225.2862 232.6458 239.01552 245.38524 249.8756 258.84199">0.3.1Pre-processing</tspan></text>
<text xml:space="preserve" transform="matrix(1 0 -0 1 0 841.89)" font-size="11.9552" font-family="CMR12"><tspan y="-697.167" x="114.304 123.24649 129.75012 139.08715 143.64208 153.62467 158.1796 164.68323 174.02025 177.27207 180.52388 190.27933 193.53115 198.08608 203.94412 208.49906 211.75087 217.60892 228.23709 234.09514 241.80625 248.30988 254.16793 258.72285 265.22648 273.35603 279.21409 283.769 293.09407 297.649 302.8495 307.4642 313.32228 319.8259 324.38084 329.58134 334.78184 339.39656 346.84465 352.7027 359.20634 369.8345 374.38945 377.64125 387.39668 392.59718 400.04527 408.82038 418.80299 425.3066 429.86155 435.06205 441.56568 446.1206 452.30146 457.50196 462.70246 467.31718 471.9319 475.1837 481.68733 491.6819 499.81144 505.6695">Duetothelimitationofhardwareresources,andtime,Nopreprocessingwas</tspan><tspan y="-682.721" x="114.304 120.80763 126.66568 133.16931 142.26723 148.12528 154.6289 165.04189 170.89994 174.15175 181.30097 184.55278 194.30823 200.16628 206.02433 211.22484 219.73694 225.59499 230.14992 239.25978 242.83438 248.0349 258.4359 264.29399 272.8061 277.36103 283.86466 289.06517 299.15538 307.27296 312.47346 317.02839 326.13825 331.33876 337.1968 340.4486 343.7004 348.9009 354.1014 358.65635 363.85685">doneandallimagesarefedastheywerecollected</tspan></text>
<text xml:space="preserve" transform="matrix(1 0 -0 1 0 841.89)" font-size="14.3462" font-family="CMBX12" font-weight="bold"><tspan y="-628.633" x="114.304 122.38091 126.87128 134.94818 139.43854 163.65493 178.96231 187.48395 196.45032 203.80992 213.6801 222.64647 230.00608 234.49643 241.85604 249.02913 255.31276 259.80314 267.88005">0.3.2ModelSelection</tspan></text>
<text xml:space="preserve" transform="matrix(1 0 -0 1 0 841.89)" font-size="11.9552" font-family="CMR12"><tspan y="-601.484" x="114.304 122.756328 129.25995 133.81488 138.36981 143.57033 149.75118 154.3061 157.55792 162.75843 168.99904 175.99283 182.49646 188.01976 193.8778 201.85193 208.35556 212.97026 218.17078 227.43607 236.21118 240.10858 248.8837 254.08422 261.40083 269.85316 273.10496 277.65989 286.93714 291.49208 297.98374 305.95787 311.81593 316.37086 320.92579 326.12629 332.30714 336.86207 340.11387 345.95997 355.2372 364.99266 371.1735 377.67713 382.87763 388.89109 395.3947 400.93 407.11085 410.36265 416.86628 425.486 429.0606 434.91868 438.17048 441.42228 446.95756 455.40989 458.66169 465.1653 473.78504 480.28868 485.48918 490.0441 495.90217 499.15397 502.40577 507.02049">Currently,IhaveusedU-Netwiththeattentionmodelhavingfollowingdetails.</tspan><tspan y="-587.039" x="114.304 123.07912 128.93717 134.79521 138.04703 147.77857 154.2822 160.78583 169.21425 173.76918 182.86708 189.37071 195.22876 199.78369 206.28733 214.4049 220.26296 224.81789 233.25826 236.51007 239.76189 249.50539 252.7572 257.31214 263.1702 267.72514 270.97694 276.835 286.5785 292.43656 298.29463 307.38059 313.88423 320.38786 323.63966 329.8205 336.32414 344.75254 348.00434 357.75978 363.61784 369.4759 374.6764 382.519 390.64857 395.84907 400.404 408.8324 413.4471 418.6476 421.8994 427.0999 432.3004 436.85536 442.05586 451.78739 456.34233 465.42829 469.98323 474.53816 480.3962 483.648 493.3915 499.24958 505.7532">Againduetohardwarelimitation851uniqueimageswereselectedtotrainour</tspan><tspan y="-572.593" x="114.304 123.24649 134.46048 144.21593 150.40872 156.91236 162.10092 169.26209 173.81702 182.59214 186.48954 195.26465 200.46517 205.0201 213.47243 219.33048 227.85453 231.10634 239.55867 245.41672 248.66854 251.92035 257.45564 265.90797 274.42008 278.975 288.73048 295.2341 300.76939 306.62745 315.72535 325.49278 331.33888 336.53938 341.0943 345.709 351.56709 356.122 359.3738 362.6256 371.73548 378.5619 384.41996 390.92359 397.42723 403.93086 409.7889 414.34385 419.54438">DLmodel(U-Net)asitallowstohaveaversatileboundary.</tspan><tspan y="-553.166" x="114.304 120.16205 129.9175 136.42113 139.67295 146.17658 152.6802 157.88072 168.2937 171.54552 177.06882 182.92687 188.12738 192.68231">11hiddenlayers</tspan><tspan y="-538.72006" x="114.304 121.776 127.63405 132.18898 138.04703 145.20819 151.71183 157.56987 162.1248 167.98285 177.7383 182.353 190.80533 196.66338 202.52143 205.77324 211.63129 217.48934 223.34738 226.5992 232.45725 238.31529">Totalparams:31,117,985</tspan><tspan y="-524.27407" x="114.304 121.776 126.33093 132.18898 135.4408 141.94443 147.80248 154.3061 157.55792 166.66779 173.17142 179.02947 183.5844 189.44245 199.18595 203.81259 212.26493 218.12297 223.98102 227.23284 233.09088 238.94893 244.80698 248.05879 253.91684 259.76295">Trainableparams:31,105,953</tspan><tspan y="-509.82804" x="114.304 123.07912 128.93717 135.4408 139.3382 143.89313 148.44806 154.3061 157.55792 164.06156 169.9196 176.42324 179.67505 188.77297 195.2766 201.13465 205.68958 211.54763 221.30307 225.91777 234.3701 240.22815 246.0862 249.33802 255.19606 261.0541">Non-trainableparams:12,032</tspan></text>
<text xml:space="preserve" transform="matrix(1 0 -0 1 0 841.89)" font-size="14.3462" font-family="CMBX12" font-weight="bold"><tspan y="-455.73905" x="114.304 122.38091 126.87128 134.94818 139.43854 163.65493 174.24242 181.87459 189.72196 194.21231 203.17868 211.02605 217.30968 221.80004 229.87694">0.3.3Evaluation</tspan></text>
<text xml:space="preserve" transform="matrix(1 0 -0 1 0 841.89)" font-size="11.9552" font-family="CMR12"><tspan y="-428.59104" x="114.304 118.524188 124.705028 129.25995 134.46047 139.0154 143.6301 148.83061 154.03113 158.58606 161.83788 167.69593 178.09696 183.63222 189.49027 194.69078 203.14311 209.64675 216.15038 219.40219 225.26024 235.66127 239.88146 245.7395 258.42399 264.9276 270.78569 279.2978 286.1242 291.3247 296.5252 306.9382 313.42988 318.05656 323.2451 333.65809 339.51615 348.02827 352.5832 359.08683 368.1967 373.3972 378.9205 384.77857 388.03038 394.534 400.39207 404.947 408.1988 414.05686 424.4579 434.21333 439.41383 443.96876 448.52369 451.77549 456.97599">IntersectionoverunionIoUhasbeenusedastheevaluationmetric.</tspan></text>
<text xml:space="preserve" transform="matrix(1 0 -0 1 0 841.89)" font-size="11.9552" font-family="CMR12"><tspan y="-40.978029" x="289.67103 295.85188 299.10368 302.35548">viii</tspan></text>
</g>
</svg>
