<?xml version="1.0" encoding="UTF-8" standalone="no"?>
<!DOCTYPE svg PUBLIC "-//W3C//DTD SVG 1.1//EN" "http://www.w3.org/Graphics/SVG/1.1/DTD/svg11.dtd">
<svg xmlns="http://www.w3.org/2000/svg" xmlns:xlink="http://www.w3.org/1999/xlink" version="1.1" width="595.276pt" height="841.89pt" viewBox="0 0 595.276 841.89">
<g enable-background="new">
<text xml:space="preserve" transform="matrix(1 0 -0 1 0 841.89)" font-size="17.2154" font-family="CMBX12" font-weight="bold"><tspan y="-759.068" x="85.039 94.73127 100.11969 129.17929 136.39255 146.6185 154.15885 162.07793 172.30388 183.0635 193.82314 202.43083 209.97118 215.3596 225.05188">0.1Introduction</tspan></text>
<text xml:space="preserve" transform="matrix(1 0 -0 1 0 841.89)" font-size="11.9552" font-family="CMR12"><tspan y="-732.784" x="85.039 96.42035 102.92398 109.42761 114.62813 120.80897 127.63539 132.8359 138.03643 142.59136 147.79187 156.88979 162.74784 169.25147 173.8064 180.31003 184.86496 190.06548 195.92353 204.71059 210.56864 216.74947 221.3044 227.80803 235.60283 240.15776 246.01581 250.57074 258.3775 262.93244 268.13294 272.74766 279.25129 282.50309 287.058 292.91609 297.471 303.32908 307.884 316.65913 323.16276 326.41456 331.02928 336.22978 342.08784 346.70256 354.50929 362.63883 368.4969 375.71784 380.27278 385.47328 392.29969 398.15776 402.71269 407.2676 412.4681 421.566 424.8178 433.92768 444.97428 451.4779 457.98155 463.8396 470.34324 476.4643 484.91664 491.42027 494.67207 501.1757 507.03376">AunexpectedoutbreakoftherarerespiratorydiseasewasreportedinWuhan,China,</tspan><tspan y="-718.338" x="85.039 91.54263 96.74315 102.6012 110.049289 114.60422 121.095897 129.18958 134.39009 140.89373 150.29051 156.14856 162.60437 171.54686 176.74738 181.94789 187.1484 196.58107 203.40749 208.608 216.05609 221.91414 227.76024 233.61829 239.47634 247.59392 256.04624 262.54988 270.64353 279.09587 285.5995 288.8513 295.35493 300.55543 305.17015 313.25184 321.70417 326.90467 333.0855 337.64045 342.84095 350.28904 353.86366 359.7217 367.15785 376.10035 379.35215 383.96687 389.16737 395.02543 399.64015 407.7338 416.18614 422.0442 428.21308 432.768 437.32295 443.181 449.32597 455.18403 461.68766 471.07249 479.03465 483.58958 488.79008 494.64814 499.84864 506.35227">neartheendofDecember2019.TheChineseCenterforDiseaseControlandPreven-</tspan><tspan y="-703.892" x="85.039 89.59393 92.84575 98.7038 109.320018 114.52053 120.70137 126.55942 136.31487 139.56668 146.07032 151.27083 161.88706 166.44199 172.94562 182.25873 185.51055 191.0458 199.17536 204.36392 213.0434 217.59833 222.79885 227.41355 233.91718 237.16899 241.71198 247.57003 252.12496 257.983 262.53794 272.83137 277.3863 281.94123 287.7993 292.9998 297.55473 306.282 312.14009 319.83924 324.45396 327.70576 332.5715 342.86494 349.36857 355.22663 359.78157 363.03337 368.23387 374.4147 378.96965 387.69694 393.555 400.05863 410.67485 417.17848 420.43028 425.04499 430.24549 435.78077 441.63883 446.83934 451.39427 456.59477 467.21098 475.6633 484.43843 493.21354 497.44569 506.38819">tionexaminedthelowerrespiratorytractsofsickpatientsanddiscoveredCOVID-</tspan><tspan y="-689.44607" x="85.039 90.89705 96.7551 103.55761 112.88267 119.3863 124.921558 130.7796 135.98012 142.69895 147.89946 153.7575 158.31244 164.17049 170.67412 176.20938 182.39022 185.64203 190.19696 196.70059 201.31529 209.62416 218.07649 226.86357 235.63869 239.85887 248.80136 252.69876 258.55683 267.8819 271.1337 279.21543 288.5405 293.1552 299.33607 303.95079 308.5057 313.7062 323.46165 326.71345 335.38096 338.63276 345.13639 348.711 353.9115 359.112 363.66694 366.91874 372.7768 382.74745 387.30238 393.806 399.66407 407.686 414.18965 418.74458 421.99638 431.7518 437.60987 442.1648 445.4166 448.6684 458.31626 464.17433 467.58753 471.00074 476.20124 481.40174 485.95668 494.0384 498.59333 505.09696">19,anovelcoronavirus.COVID-19isasystemicinfectionthatprimarilyaffectsthe</tspan><tspan y="-675.00009" x="85.039 90.23952 96.74315 103.24678 109.10483 113.65976 120.16339 125.36391 128.61573 131.86754 138.37117 152.46636 155.71817 161.24147 167.09952 172.30004 181.1947 187.05275 194.96709 199.52202 206.02565 215.5659 218.81772 225.32135 231.82498 237.68303 246.62552 252.48357 258.98719 269.83058 274.44529 280.9489 285.50386 290.70436 296.5624 303.06605 312.0205 315.59513 320.15007 326.00813 340.1033 346.92973 352.13023 356.68516 361.29988 367.15794 378.0013 382.55625 392.75407 399.58049 404.78099 409.3359 413.95063 419.8087 426.31233 434.01145 442.46379 448.9674 454.1679 458.72285 465.22648 470.42698 479.3097 483.9244 490.10527 499.8607 506.36433">endotheliumlayerofthelungsandspreadsfrompersontoperson,whethersymp-</tspan><tspan y="-660.55508" x="85.039 89.59393 95.45198 105.20743 111.065479 115.62041 118.87222 127.97013 133.82819 142.29247 148.15052 152.76522 158.94605 168.70149 175.20513 179.74811 185.60616 195.3616 201.21965 205.77458 209.0264 214.22692">tomaticorasymptomatic.</tspan><tspan y="-631.663" x="85.039 92.678379 98.53642 103.15113 107.70606 111.603458 120.05578 128.84287 137.61798 141.83817 150.78066 154.67806 160.5361 172.10874 178.61237 185.116 188.36782 198.12326 203.98131 210.48494 216.34299 220.89792 232.8053 236.05113 239.30893 245.81256 250.3675 256.22557 260.84028 264.09208 274.43333 277.68513 288.02638 292.90409 299.4077 305.26579 309.8207 315.67878 320.87928 325.4342 330.62275 335.17768 338.42948 343.0442 348.2447 360.47486 366.33293 376.67417 381.2291 387.73274 398.65977 404.8406 410.0411 415.2416 421.74525 426.30018 430.8551 436.0556 442.55924 447.75975 458.68678 464.54484 473.84599 477.09184 480.3496 486.85325 491.40818 497.26625 501.82118 505.07298">Post-COVID-19pulmonaryfibrosisischaracterisedastheoccurrenceoffibrotic</tspan><tspan y="-617.21707" x="85.039 93.491329 107.0007 112.85875 116.110569 120.6655 125.86601 130.42095 136.27899 140.83393 144.08574 149.94379 156.44742 166.11917 171.97722 183.54985 187.12445 192.9825 196.23432 199.47418 205.00945 213.46178 217.35918 223.86281 235.4235 240.0382 244.59313 251.09676 257.60038 260.85218 266.05268 275.7364 280.29133 286.79496 292.653 302.26499 308.12306 312.67799 322.93553 328.13603 333.99409 343.7495 353.50495 359.363 365.86665 369.11845 380.35633 385.55683 388.80863 392.06044 398.56407 401.81587 407.01637 412.87443 416.12623 419.37803 430.6159 436.47398 441.08869 445.7034 451.8962 457.0967 460.3485 466.20658 470.7615 475.95005 487.52268 495.975 499.2268 503.78175">CTalterationsonfollow-upstudiesthatarecommonlyclinicallyassociatedwith</tspan><tspan y="-602.77108" x="85.039 91.54263 96.74315 101.943668 106.4986 111.69911 117.55716 122.17187 127.37238 137.23542 140.48723 146.99086 153.49449 162.7239 166.29851 172.80214 179.30577 184.49434 189.04927 192.30109 198.15914 204.66277 212.94773 220.90988 226.75597 231.95648 241.83148 246.38642 252.89005 258.7481 265.25175 271.1098 280.97285 287.47648 290.72828 295.343 299.89793 305.75599 312.2596 318.11769 322.6726 329.17625 335.0343 338.2861 344.14418 350.00224 353.25404 358.45454 364.3126 370.9238 377.42744 383.2855 387.84043 392.39537 397.59587 402.1508 408.65443 416.62855 419.88035 429.75535 436.58177 442.43983 447.05455 451.60948 455.50688 463.9592 472.74629 481.5214 485.74159 494.68409 498.58149 504.43955">decreasedlungfunction.Eventhoughhistopathologicalpatternsinpost-COVID-19</tspan><tspan y="-588.3251" x="85.039 91.54263 98.046268 101.29808 111.05353 116.911579 123.41521 129.27326 133.82819 144.88674 148.13257 151.39037 157.894 162.44893 168.30698 172.92168 176.1735 185.66591 192.16954 197.7048 203.56285 213.64109 219.48717 224.68769 234.1323 238.68723 249.42299 256.24943 266.32765 272.83128 276.08308 280.69779 285.8983 291.43357 297.27967 302.48017 307.0351 312.2356 318.73924 327.1198 331.67475 338.17839 343.37889 354.43745 360.2955 364.85044 374.92866 379.48359 385.9872 391.84529 398.3489 404.20698 410.38783 419.82048 424.3754 435.11119 441.9376 452.0158 456.57075 463.07438 468.93244 473.54716 483.62538 489.48344 497.93577 503.79383">pulmonaryfibrosishaveyettobediscovered,theyarethoughttobethoseofan</tspan><tspan y="-573.88009" x="85.039 90.89705 95.45198 101.31003 107.168079 113.67171 116.92352 121.53823 124.79005 131.29367 140.16443 146.02248 152.52611 162.04245 165.28829 168.54608 175.04972 179.60465 185.46269 190.01763 193.26944 201.48267 207.9863 214.48993 220.34798 224.96268 233.1759 239.03395 245.62126 252.1249 255.37671 258.78993 262.20314 268.70677 273.32148 281.53468 287.38078 290.63258 296.49064 301.69114 307.5492 310.801 316.65907 324.22669 330.73033 336.58839 346.3438 352.20188 358.05995 366.27314 370.82807 379.44779 388.2229 397.1654 401.72035 407.98487 411.2307 414.4885 420.99214 425.54707 431.40513 436.01985 439.27165 445.77528 454.64607 461.1497 467.00776 473.51139 478.1261 484.9525 490.153 495.35353 498.60533 501.85118 505.10896">organisingandfibroticphaseofdiffusealveolardamage(DAD),fibrosingnonspecific</tspan><tspan y="-559.4341" x="85.039 88.29082 94.47166 99.02659 104.227108 108.782039 113.39674 117.951679 121.20349 125.75842 129.01024 134.86829 142.3642 148.86783 155.37146 160.57198 167.0756 176.83106 182.6891 189.19274 192.44455 196.99948 200.2513 204.866 212.45755 218.3156 224.81923 235.57892 241.43697 245.9919 251.84995 257.708 264.21165 267.46345 272.66395 275.90379 282.4074 292.5215 299.02516 305.52879 310.72929 317.2329 326.98835 332.8464 339.35005 342.60185 348.4599 357.96427 366.4166 379.11305 382.68766 387.88816 393.74623 398.30116 404.80479 409.3597 414.5602 423.43098 430.2574 435.4579 438.7097 445.21333 455.32743 462.15385 468.0119 472.56684 477.76734 483.94819 488.5031 491.7549 497.61299 500.86479 504.11659">interstitialpneumonitis,andorganizingpneumonia.CTfeaturesbeingpotentially</tspan><tspan y="-544.9881" x="85.039 88.29082 94.79445 99.994968 106.175807 110.730739 113.98255 117.228389 120.48618 125.6867 136.00403 139.25585 149.57318 156.07682 162.58045 165.83226 175.5877 181.44576 187.94939 193.80744 198.36237 208.3569 211.60274 214.86054 221.36417 225.9191 231.77715 236.39185 239.64366 248.07207 252.68677 257.88728 263.08778 268.94584 275.44947 281.9531 287.81117 292.3661 302.36067 306.9156 316.58738 325.0397 333.82679 342.6019 346.82209 355.7646 359.662 365.52006 375.19184 381.69548 388.1991 393.3996 399.90324 409.65867 415.51673 422.02037 425.27217 434.94395 441.44758 446.98286 452.8409 461.85514 468.68156 473.88206 479.08256 489.3999 494.01463 500.51826 506.3763">identifiedinpulmonaryfibrosissecondarytoCOVID-19pneumoniahavebeensug-</tspan><tspan y="-530.5421" x="85.039 90.89705 96.097568 100.71227 105.267208 110.46772 121.01221 125.56714 135.478 138.72982 145.23345 150.43396 153.68578 160.1894 166.69304 175.93442 180.48935 186.99298 196.23436 202.73799 207.29293 212.49344 217.10814 222.30866 228.81229 234.0128 243.25418 249.11223 256.73966 262.59773 267.15266 272.03038 278.534 281.77384 286.32878 291.52928 296.72978 301.2847 307.78834 312.34327 318.20133 325.50596 332.00959 335.26139 339.8761 344.43104 350.2891 354.84403 359.39897 362.65077 368.50883 375.01246 382.34098 386.8959 392.0964 396.65135 399.90315 405.10365 411.60728 414.85908 420.71714 429.31294 432.56474 437.76524 442.37995 445.63175 451.4898 457.99345 462.60816 469.93669 474.4916 479.04655 484.9046 490.1051 494.66004 497.91184 503.7699">gestedtoincludethepresenceofarchitecturaldistortion,reticularlesions,traction</tspan><tspan y="-516.0961" x="85.039 91.54263 96.097568 101.95561 108.45924 113.33697 119.8406 123.092418 128.95047 132.20229 137.4028 142.60332 147.15825 153.0163 157.631 160.88282 165.49752 174.72693 180.58498 185.13991 190.99796 197.50159 204.00522 210.50885 214.40625 220.2643 223.51612 229.37416 233.98886 244.16274 250.02079 256.5244 262.38249 267.58299 270.83479 275.06694 280.26747 289.49687 299.2523 305.11036 309.72508 315.58314 318.83494 329.60658 335.46464 340.01957 344.5745 349.775 355.94389 362.4475 368.30558 372.8605 376.1123 381.97038 388.474 397.71537 403.57344 410.07707 422.13987 428.6435 434.50157 441.0052 446.2057 452.38655 457.58705 463.4451 472.87776 479.38139 482.63319 489.12486 500.55406 503.80586">bronchiolectasis,ground-glassopacity,mosaicattenuation,andhoneycombingin</tspan><tspan y="-501.65013" x="85.039 90.23952 96.097568 102.6012 107.215908 110.46772 116.97135 122.17187 126.7268 132.58486 137.13979 140.3916 146.24965 158.16899 164.02704 173.00539 179.50902 184.06395 189.26447 193.87917 200.3828 210.13825 215.33876 227.2581 233.76174 237.01355 241.62825 246.18318 252.04123 258.54487 264.40293 268.95787 275.4615 281.31956 284.57136 290.4294 296.28749 299.53929 310.1555 316.65913 322.51719 327.0721 331.62705 336.82756 341.38249 347.8861 352.50083 365.48417 373.7691 380.27275 390.24339 396.10145 401.30195 406.50245 412.3605 416.91545 423.41908 426.67088 433.1745 444.4363 448.99125 460.265 464.81996 471.32359 481.9398 486.5545 491.10945 497.61308 504.1167">considerationofpresumedhistopathologicpatterns.Butaccordingtothestudy</tspan><tspan y="-487.2051" x="85.039 91.21984 101.81215 109.45152 115.30957 126.22467 131.42519 140.40355 146.2616 153.92488">byPanetal(</tspan></text>
<text xml:space="preserve" transform="matrix(1 0 -0 1 0 841.89)" font-size="11.9552" font-family="CMR12"><tspan y="-487.2051" x="158.47982">1</tspan></text>
<text xml:space="preserve" transform="matrix(1 0 -0 1 0 841.89)" font-size="11.9552" font-family="CMR12"><tspan y="-487.2051" x="164.33786 168.89279 176.68759 181.24253 187.74616 197.3701 205.82244 218.68624 222.26084 227.46135 233.3194 237.87433 244.37796 248.93289 254.1334 263.15959 267.7743 272.9748 278.1753 289.10237 294.96043 303.92683 309.78489 316.2885 321.489 325.3864 331.24449 336.44499 342.30305 351.26945 354.84407 360.70213 363.95393 367.20573 372.741 381.19334 385.09074 391.59437 402.50947 407.12419 411.6791 418.18275 424.68638 427.93818 433.13868 442.17683 450.2944 455.4949 460.04985 469.67378 474.2287 480.73234 486.5904 491.2051 500.81709 506.67515">),theCTfeaturesseenatone-yearfollow-upstudieswerethoseof</tspan><tspan y="-472.7591" x="85.039 88.284839 91.54263 98.046268 102.6012 108.45924 113.014179 116.26599 121.46651 125.3639 128.6157 131.86753 137.72557 146.82349 150.0753 153.32712 159.83075 165.03127 170.88932 179.34165 185.19969 193.66397 203.08467 209.5883 212.84012 217.39505 220.64687 224.22147 230.4023 235.60282 241.46086 248.62203 253.17696 258.37748 262.9324 266.1842 271.3847 277.88835 281.14015 286.9982 295.45054 301.3086 307.81224 314.31587 320.17393 326.03199 334.4843 339.6848 345.86567 350.48039 355.0353 358.2871 367.39698 370.64878 375.84928 380.464 383.7158 389.57386 396.06553 400.6922">fibrotic-likelinearormultifocalreticularand/orcysticlesions.</tspan><tspan y="-443.8671" x="85.039 93.491329 99.99496 105.19547 109.750408 120.97634 129.10588 134.3064 138.86133 150.08727 156.5909 168.47437 172.69455 178.87538 185.37902 188.63083 193.83135 199.68939 208.96663 217.41896 231.89672 240.51642 249.29154 264.25944 267.50529 270.76307 277.2667 283.77033 287.02214 293.52577 299.38383 303.99855 313.8018 318.4165 324.92015 329.79786 342.3269 348.18498 358.8251 362.07096 365.32875 371.83238 376.3873 382.24537 386.86009 390.11189 396.6155 408.499 415.00263 420.8607 427.36433 431.97904 438.80546 444.00596 449.20646 452.45826 455.7041 458.96189 470.1878 473.4396 479.6085 484.16343 489.36393 493.91886 498.53358 503.0885 506.3403">TherewerenotypicalCTDADfindings,suchasfibrosingnonspecificintersti-</tspan><tspan y="-429.42109" x="85.039 89.59393 92.84575 98.7038 107.22786 113.73149 120.23512 125.43564 131.93927 141.69472 147.55277 154.0564 157.30821 161.86315 165.11496 175.0019 180.85996 190.68714 196.54518 201.10012 206.95816 212.81621 219.31984 222.57166 227.18636 232.38687 244.16275 250.66638 257.17 262.3705 268.86219 278.6176 284.47569 290.9793 294.2311 305.36143 311.86506 317.7231 322.27806 326.83299 332.03349 336.5884 343.09205 347.70677 360.27168 366.94267 372.80073 376.05253 379.30433 384.82765 393.27998 397.17738 403.681 415.45689 423.9092 437.6338 442.5115 449.01515 454.8732 459.42814 465.2862 470.4867 475.04164 480.24214 484.79707 488.04887 492.66358 497.2185 500.4703 505.6708">tialpneumonitisororganisedpneumoniapatterns.Follow-upCTcharacteristics</tspan><tspan y="-414.97508" x="85.039 90.89705 98.51251 103.12722 108.327739 114.18578 119.3863 123.94123 133.17064 139.02869 144.2292 150.73284 155.28777 164.52915 169.08408 174.28459 178.89929 185.40293 188.65474 193.20967 199.06772 203.62265 209.4807 214.03563 224.25733 228.87203 235.05286 241.55649 248.06012 252.61505 258.4731 268.22856 273.42906 277.32646 283.1845 287.79924 292.41395 298.5948 303.7953 307.0471 312.90516 317.46009 322.66059 333.20509 338.40559 344.26365 348.81858 354.67665 361.18028 366.70359 372.88444 376.13624 380.69117 387.1948 395.85038 400.4053 406.90895 415.68406 424.30375 430.80738 434.70478 443.1571 449.01518 457.79029 466.38609 469.63789 476.1415 479.71614 484.91664 490.11714 494.67207 497.92387 503.78193">ofsevereacuterespiratorysyndrome-associatedcoronavirus(SARS-CoV)infection</tspan><tspan y="-400.53007" x="85.039 91.54263 96.097568 102.278408 108.782039 115.28567 120.48618 125.6867 135.25086 140.45137 146.30942 156.06487 162.5685 168.42655 172.98148 178.83953 185.34316 188.59497 196.85602 201.41095 206.61147 211.22617 217.7298 220.98162 225.53655 230.15125 238.31665 245.95603 251.81407 256.36903 259.62083 264.82133 271.00218 275.5571 283.23234 291.68467 294.93647 299.4914 309.05555 315.55918 322.0628 328.56645 333.76695 338.32188 341.57368 347.74256 350.99436 357.498 366.41658 369.66838 375.8492 380.40415 385.60466 390.15959 394.7743 399.32923 402.58103 407.13597 410.38777 416.24583 422.55815 425.80995 432.31358 438.8172 447.73579 454.2394 457.4912 462.10594 467.30644 473.1645 477.7792 482.9797 489.4594 495.96305 501.8211 506.37605">producedcomparableresults.Patientswithunderlyinginterstitiallungdisease,par-</tspan><tspan y="-386.08406" x="85.039 89.59393 92.84575 98.046268 104.5499 107.80171 113.65976 118.21469 121.46651 132.4892 137.04413 143.54776 149.39386 154.02051 164.05092 172.50325 175.75507 180.31 191.65549 198.4819 204.66274 210.52079 219.91757 223.16939 229.67302 236.17665 246.8646 250.4392 256.9428 263.44645 268.64695 273.20188 276.45368 282.31175 293.65724 299.5153 306.01893 317.3644 323.22248 330.0489 335.2494 339.8641 343.1159 347.3361 352.54856 360.86936 366.72743 371.28236 381.3247 387.18278 396.5676 407.26753 413.77116 417.02296 422.881 429.38465 434.58515 443.98194 448.53688 451.78868 456.40339 467.41413 473.2722 481.68867 488.1923 493.3928 499.25086 503.8058">ticularlythosewithpoorlungfunctionandobesity,areatahigherriskofdeath</tspan><tspan y="-371.63804" x="85.039 88.61361 93.16854 99.02659 112.67942 121.131748 129.91883 138.69394 142.91413 151.85662 155.75402 161.61206 167.47011">fromCOVID-19.</tspan><tspan y="-342.74604" x="85.039 92.678379 95.93019 102.43382 108.29187 111.543689 114.7955 119.99602 129.99057 133.56517 139.42322 142.67504 145.92685 151.46212 159.91445 163.81185 170.31548 182.99994 191.45227 206.07349 210.68819 215.8887 221.74675 228.25038 239.03397 244.89202 254.64745 263.09977 271.88685 280.66197 284.88215 293.82466 297.72206 303.5801 315.60707 322.1107 328.61433 333.81483 340.31846 350.07389 355.93196 362.43559 365.68739 377.7263 384.22993 390.07603 394.63096 397.88276 403.08326 409.2641 413.81904 424.6146 429.16954 434.37004 440.2281 445.41664 451.2747 460.70735 467.53376 472.73426 477.28919 481.9039 485.1557 489.77043 494.32536 499.52586 505.7067">Finally,follow-upCTscansofCOVID-19pneumoniapatientsrevealpersistent</tspan><tspan y="-328.30104" x="85.039 88.284839 91.54263 98.046268 102.6012 108.45924 113.014179 116.26599 121.46651 125.3639 128.6157 131.86753 137.72557 148.06682 151.31864 154.57045 161.07408 166.2746 172.13265 181.84027 187.69832 197.39398 206.82665 213.33028 216.58209 221.13703 224.38884 227.96344 234.14427 239.34479 245.20284 253.60735 258.1623 263.3628 267.91773 271.16954 276.37004 282.87367 286.12547 291.98353 296.53846 302.3965 307.59703 313.77787 318.39259 322.9475 326.1993 336.54057 339.79237 344.99287 349.60758 352.85939 358.71745 365.22108 369.8358 382.0301 388.53373 399.54447 402.79627 411.51164 419.64118 429.99436 434.60908 439.80958 445.66764 455.42308 460.62358 466.79246 476.50007 481.055 487.55863 497.9118 501.1636 506.3641">fibrotic-likelinearormultifocalreticular/cysticlesions.Soifwesegmentthele-</tspan><tspan y="-313.855" x="85.039 89.65371 92.905529 98.76357 110.26448 114.81941 120.01993 125.877979 129.12979 134.98784 141.49147 150.01554 153.26735 157.82228 161.0741 164.32592 172.58696 179.41338 189.61116 196.11479 201.3153 204.56713 211.07076 214.64536 221.14899 229.39807 232.97267 238.83072 248.38292 255.2213 261.07936 265.69407 275.24629 283.6986 292.4857 301.2608 305.481 319.42076 323.97569 328.5306 333.7311 339.58918 344.1441 353.89955 359.10005 365.26893 374.83308 381.00196 392.19203 395.44383 401.62467 407.48274 413.66358 416.91539 423.419 434.27436 440.13243 449.68464 454.23957 460.7432 470.94099 476.79905 480.21226 483.62547 488.82597 494.02647 498.5814 503.7819">sionregion,it&#x2019;llbehelpfulforpostCOVIDtreatmentbylookingattheaffected</tspan><tspan y="-299.409" x="85.039 90.89705 95.45198 100.6525 106.510547 115.022647 120.88069 128.36466 131.61647 138.1201 144.62374 150.48178 155.09648">areasoflungs.</tspan></text>
<text xml:space="preserve" transform="matrix(1 0 -0 1 0 841.89)" font-size="11.9552" font-family="CMR12"><tspan y="-40.977998" x="294.386 297.6378">ii</tspan></text>
</g>
</svg>
