<?xml version="1.0" encoding="UTF-8" standalone="no"?>
<!DOCTYPE svg PUBLIC "-//W3C//DTD SVG 1.1//EN" "http://www.w3.org/Graphics/SVG/1.1/DTD/svg11.dtd">
<svg xmlns="http://www.w3.org/2000/svg" xmlns:xlink="http://www.w3.org/1999/xlink" version="1.1" width="595.276pt" height="841.89pt" viewBox="0 0 595.276 841.89">
<g enable-background="new">
<text xml:space="preserve" transform="matrix(1 0 -0 1 0 841.89)" font-size="17.2154" font-family="CMR17"><tspan y="-659.583" x="148.492 159.9919 171.93939 183.86966 189.51631 201.6876 206.88666 214.78853 227.88945 239.38935 256.0883 264.88536 271.8748 279.77665 293.75553 303.6716 310.66105 316.84138 321.14524 329.0471 343.0432 351.84028 358.8297 366.73158 380.02186 387.0113 395.36076 401.455 409.35685 415.45109 419.75495 427.6568">COVID-19CTScanLesionSegmentation</tspan></text>
<text xml:space="preserve" transform="matrix(1 0 -0 1 0 841.89)" font-size="11.9552" font-family="CMR12"><tspan y="-602.618" x="291.46003 297.64088">by</tspan><tspan y="-573.99899" x="229.35503 240.07884 246.58248 253.0861 258.94416 268.6996 278.45503 284.31309 294.7141 301.21775 307.72138 313.57945 318.13438 321.38618 331.46443 337.96806 344.47169 350.32975 356.1878 359.4396">MuhammadShariqShoaib</tspan><tspan y="-559.553" x="257.72904 268.45286 274.95649 283.4088 289.91246 297.55183 303.40989 309.26795 319.99177 325.84983 331.7079">MSCSF21M507</tspan><tspan y="-502.58699" x="206.04103 218.71355 225.21718 229.77211 236.28769 239.86229 245.0628 250.26332 258.71565 265.21928 269.7742 275.63227 282.45869 288.31675 292.93147 298.78953 305.93873 309.51335 315.3714 323.8357 328.39064 334.89427 343.99217 349.19267 355.05073 361.55436 366.10929 370.724 379.8219 385.67997">Aprojectproposalforthecourseof</tspan><tspan y="-488.14198" x="240.08502 249.02751 254.22803 259.42854 269.82957 277.14616 282.34666 288.2047 292.75965 299.26329 302.51509 309.0187 318.78614 327.23847 333.7421 337.6395 343.4856 349.34367">DeepLearningCS-568</tspan><tspan y="-402.82997" x="172.04602 178.70507 184.56311 189.76363 196.26726 199.51908 203.75122 213.82946 219.6875 227.17145 235.62378 241.48183 251.23728 257.7409 264.24455 268.79948 272.05128 278.5549 288.31037 301.31764 305.5378 312.04145 315.61607 321.47413 326.02906 335.7845 341.64256 346.19749 349.44929 355.30735 365.70838 373.19233 378.39283 383.27055 389.77418 396.2778 402.13587 405.38768 411.24574 417.09184">FacultyofComputing&#x0026;InformationTechnology</tspan><tspan y="-388.38395" x="244.36203 253.13715 259.64079 262.89259 268.75065 273.95115 278.50608 283.1208 286.3726 290.60475 300.68299 306.54106 314.01307 321.97523 328.47886 334.98249 338.5571 344.41517">UniversityofPunjab</tspan><tspan y="-373.93794" x="258.70005 267.64253 272.84303 278.04353 283.24403 292.67668 299.50309 304.70359 313.1559 319.01399 324.87205 330.7301">December2021</tspan></text>
<text xml:space="preserve" transform="matrix(1 0 -0 1 0 841.89)" font-size="11.9552" font-family="SFRM1200"><tspan y="-274.45295" x="219.97705">&#x00a9;</tspan></text>
<text xml:space="preserve" transform="matrix(1 0 -0 1 0 841.89)" font-size="11.9552" font-family="CMR12"><tspan y="-274.45295" x="236.88205 242.7401 248.59815 254.45619 260.31425 268.76655 277.54167 284.0453 287.2971 293.15516 298.35566 302.91059 307.5253 310.7771 315.00926 325.0875 330.94557 338.41758 346.37974 352.88337 359.387 362.9616 368.81968">2021.UniversityofPunjab</tspan><tspan y="-260.00694" x="249.12505 257.90019 261.15199 268.30119 272.8561 276.1079 281.96598 288.14683 292.70176 301.21388 305.7688 310.9693 315.584 320.78453 325.33946 331.1975 336.398 342.90165">Allrightsreserved.</tspan></text>
</g>
</svg>
