<?xml version="1.0" encoding="UTF-8" standalone="no"?>
<!DOCTYPE svg PUBLIC "-//W3C//DTD SVG 1.1//EN" "http://www.w3.org/Graphics/SVG/1.1/DTD/svg11.dtd">
<svg xmlns="http://www.w3.org/2000/svg" xmlns:xlink="http://www.w3.org/1999/xlink" version="1.1" width="595.276pt" height="841.89pt" viewBox="0 0 595.276 841.89">
<g enable-background="new">
<text xml:space="preserve" transform="matrix(1 0 -0 1 0 841.89)" font-size="11.9552" font-family="CMR12"><tspan y="-759.068" x="114.304 123.07912 132.96607 137.521 144.02463 154.49739 162.94972 171.7368 180.51192 184.7321 193.67459 197.57199 203.43004 214.54837 220.40642 226.91005 231.46498 237.96862 242.52355 248.38159 254.23964 264.7124 268.28703 272.84196 278.7 293.7277 304.77433 311.27796 317.7816 323.63966 335.41554 343.86787 350.3715 353.6233 360.12693 371.25724 377.1153 383.61894 395.3948 401.25288 411.13984 422.27015 426.82508 432.02558 436.6403 443.14393 446.39573 450.95066 459.80946 469.56489 475.42295 481.6038 493.0569 499.56053 502.81233 506.38694">AstheCOVID-19outbrokefromWuhanChinaandasaresult,manydif-</tspan><tspan y="-744.623" x="114.304 117.87861 123.079128 127.634059 132.83457 139.01541 148.18505 154.68868 157.94049 163.79854 169.65659 176.16022 182.01827 186.63297 191.1879 194.43972 204.26689 208.82183 215.00266 220.8607 224.11252 233.34192 241.47147 246.67198 251.22692 261.04216 267.54579 272.74629 278.60435 283.80485 287.05665 292.9147 299.74113 304.94163 311.44526 319.50306 327.95539 336.4077 340.96266 346.16316 352.0212 361.77665 368.28028 374.7839 379.33885 384.53935 393.70899 398.26393 404.12199 413.8774 419.73548 425.59355 430.14848 436.00654 442.51017 448.691 454.87187 459.4268 463.3242 469.82783 475.68589 480.3006 485.5011 496.61946 503.12309 506.37489">ferentdiagnostictoolsweredeveloped,CT(computertomography)-baseddi-</tspan><tspan y="-730.177" x="114.304 120.16205 126.020099 132.52373 138.38178 142.99648 147.5514 150.80323 160.82169 165.37662 171.55745 177.4155 185.48526 189.05986 194.91791 200.11843 205.31894 216.64052 220.21512 226.71875 231.27368 235.82862 242.33225 247.53276 256.90565 262.10615 267.9642 277.71965 284.22328 287.47508 290.72688 295.92738 301.78544 306.34037 309.59217 315.45024 321.95387 331.3865 337.89015 344.39378 354.4122 358.96714 369.6551 372.9069 378.76496 383.6307 394.6295 400.48756 408.89207 414.75013 421.25376 426.45426 432.6351 439.12678 444.98484 449.53977 459.57017 469.3256 475.18367 481.35255 487.85618 493.71424 496.96604 500.21784 506.39869">agnostictoolfacedfurthercomplicationsduetolackofadequatemanually-</tspan><tspan y="-715.731" x="114.304 120.80763 126.00815 129.25997 132.51178 139.01541 144.21593 150.07398 154.6289 159.82942 171.03145 175.64615 181.5042 191.25965 197.76328 201.01509 206.2156 210.8303 221.67368 228.1773 238.7457 245.23738 251.74102 257.59907 260.85087 264.74827 271.2519 275.80683 281.6649 288.16853 293.04624 304.24827 309.44877 315.30683 324.73948 331.2431 334.4949 340.99855 346.8566 351.41154 354.66334 360.5214 371.72343 378.22706 383.42756 387.6597 395.77729 401.63536 406.19029 417.08149 421.6364 430.57893 439.0193 447.80638 457.0597 465.17729 471.03535 480.3604 486.85209 492.05259 497.91065 503.11116 506.36296">delineatedsamples.Sodual-branchcombinationnetwork(DCN)wasdevel-</tspan><tspan y="-701.28506" x="114.304 120.16205 126.98847 132.18898 143.00844 147.56337 157.73725 163.59529 168.46106 174.96469 178.2165 183.41703 189.27507 198.79141 203.99193 207.24375 213.10179 217.71649 222.33119 225.58301 228.82884 232.08664 237.28716 243.1452 247.70014 250.95195 256.81 267.6175 273.47557 279.9792 290.79866 294.05046 299.25096 303.86567 307.11747 312.97554 323.79499 328.4097 333.6102 339.46827 349.2237 354.4242 360.59309 365.148 371.00608 375.561 378.8128 384.67088 395.49034 403.94267 410.4463 413.6981 418.5758 429.3833 433.93824 439.13874 443.75346 450.25709 453.50889 458.0638 463.2643 474.08378 477.33558 488.15504 494.65867 497.91047 503.76853">opedtoachieveclassificationandlesionsegmentationwhichresultedinhigh</tspan><tspan y="-686.83908" x="114.304 120.16205 125.362567 130.56308 137.06671 141.62165 147.47969 152.6802 157.8807 167.98285 176.43518 189.33486 193.9615 199.16202 205.00812 215.97104 219.22286 228.9783 234.83635 240.6944 245.89492 254.95696 260.815 265.36994 275.01777 281.5214 286.07633 291.27684 297.78047 302.3354 308.51625 313.71675 318.91725 323.53196 328.14668 333.34718 344.3101 347.55595 350.81373 355.36866 359.98338 368.98564 375.48927 380.10398 383.35578 389.8594 400.1648 408.9399 412.8373 419.34095 424.54145 433.55567 439.40177 445.9054 456.86833 461.42326 467.92689 473.12739 484.07835 493.0208 501.47315">accuracy.CTscanimagesarepreprocessedfirstusingU-netandthenDCN</tspan><tspan y="-672.39407" x="114.304 117.55582 126.06792 131.92597 138.4296 144.93323 148.18505 151.43686 156.63738 167.05036 175.50269 182.00632 185.25814 190.1239 200.53688 207.04051 211.65522 216.85573 225.36783 232.68442 245.03415 253.80927 259.00978 267.47407 272.029 281.78446 287.64253 292.84303 301.29536 304.54716 309.74766 314.36238 317.61418 323.47224 333.88523 338.49995 343.70045 349.5585 359.31394 364.51445 370.68333 375.23826 381.0963 385.65126 388.90306 394.7611 401.26475">isappliedwhichusesFCNettogetlesionsegmentation.</tspan></text>
<text xml:space="preserve" transform="matrix(1 0 -0 1 0 841.89)" font-size="11.9552" font-family="CMR12"><tspan y="-620.58" x="99.347 105.20505">4.</tspan></text>
<text xml:space="preserve" transform="matrix(1 0 -0 1 0 841.89)" font-size="11.9552" font-family="CMBX12" font-weight="bold"><tspan y="-620.58" x="114.304 122.38572 129.85773 137.32973 149.60771 157.68943 163.82244 169.13054 172.87252 179.60329 192.61055 202.91594 209.04895 214.28533 220.41834 226.39594 231.63231 235.37429 242.10506 255.12427 258.86625 271.8735 281.59309 296.48927 303.96125 309.93885 316.47834 329.48558 334.49479 345.70878 352.24827 358.97904 365.11207 375.96739 386.30863 391.61674 395.3587 402.8307 415.0967 420.3331 427.8051 439.48536 446.8139 454.2859 460.2635 466.2411 478.88969 486.9714 494.07279 500.05039 506.58988">LungLesionDetectioninCTScanImagesUsingtheFuzzyLocal</tspan><tspan y="-606.135" x="114.304 119.31323 126.78523 130.89783 137.6286 143.12799 154.34197 160.88146 166.11783 169.8598 176.59058 189.07181 198.79138 202.53336 210.00536 215.31346 220.54984 226.68285 237.20342 249.95961 256.09263 262.6321 270.10414 280.42146 285.65785 294.11018 302.1919 307.2011 316.9207 329.67689 339.93446 350.09638 357.56837 362.80476 369.53553 380.7495 387.289 392.5254 396.26737 407.25419 414.7262 420.85923 427.59 438.804 444.937 452.0384 457.27479 463.81428 469.05067 472.79264 479.5234 492.00465 502.16658 505.90855">InformationClusterMeans(FLICM)AutomaticSegmentationAl-</tspan><tspan y="-591.689" x="114.304 121.03478 127.765567 133.26496 137.00693 142.2433 149.7153 165.41248 171.95197 179.42397 191.37917 200.94333 207.48282 213.08982 224.67441 233.86795 239.36734 246.09812 253.57012 260.10963 266.8404 273.37989 278.61628 282.35826 289.08903 301.04426 311.56483 317.69786 322.55168 331.90065 338.6314 344.1308 355.7154 365.43498 369.17695 375.71644 381.02455 386.33265 390.07463 393.8106 397.54664 403.52424 410.06373 415.3001 419.04209 425.77287">gorithmandBackPropagationNetworkClassification</tspan></text>
<text xml:space="preserve" transform="matrix(1 0 -0 1 0 841.89)" font-size="7.9701" font-family="CMR8"><tspan y="-573.005" x="114.304 120.297519 127.590167 138.16649 143.45864 147.45961 151.4606 155.69272 160.15598 164.39606 171.44959 175.6817 180.38407 187.90784 196.49164 204.24655 208.94892 212.24057 216.70383 224.23558 230.81092 235.04303 239.74539 244.44776 248.6719">ByMLavanyaandPMuthuKannan</tspan><tspan y="-558.559" x="114.304 120.41707 124.8883 128.17995 131.4716 136.17397 139.51345 141.86463 146.09674 150.32886 155.03122 159.50244 161.85363 166.55599 170.7881 173.13928 175.49047 179.72258 183.0222 187.25432 191.48644 195.71059 199.9427 202.29389 206.526 210.75812 214.99024 219.22235 223.45447 230.50801 234.74013 239.32294 245.66715 251.42954 255.7812 261.89427 266.9553 269.30647 273.53858 277.7707 281.99485 286.22697 288.57814 292.81025 297.04237 299.39353 303.62565 307.85777 310.20893 314.44105 318.67317 322.90528 329.9588">(https://dx.doi.org/10.22034%2FAPJCP.2017.18.12.3395)</tspan><tspan y="-544.114" x="114.304 121.46115 127.924907 131.6868 136.38916 140.62128 143.9209 147.21256 154.2661 158.02799 162.49124 168.70793 172.94005 178.45537 184.21775 186.56893 190.33081 194.0927 197.38436 200.68398 203.03516 206.79705 211.02916 216.30538 220.53749 225.23986 232.86725 238.62964 240.98082 244.7427 248.5046 251.79625 255.09587 259.328 264.03038 266.38154 270.14344 276.40794 282.17033 286.87269 291.1048 293.45597 298.15834 301.92024 305.68214 308.98176 311.33293 316.03529 320.2674 325.5675 330.26988 334.27085 338.50297 342.26487 346.02677 349.31843 354.02079 361.17793 365.88029 369.40309 374.10545 378.57667 382.80879 388.08497 392.31709 397.83238 403.59477 408.29713 412.52925 414.8804 419.58277 423.34468 427.10658 430.4062 432.75736 437.45973 441.69184 446.99195 451.6943 455.68733 459.9274 463.6893 467.4512 470.74287 475.44523 482.60237 488.94657 493.64894 496.0001 500.2322 503.9941 507.29374">1DepartmentofElectricalandElectronicsEngineering,SaveethaSchoolofEngineering,SaveethaUniver-</tspan><tspan y="-529.668" x="114.304 117.64347 119.99465 123.05517 126.81706 131.98966 138.10272 142.80509 147.0372 151.73957 156.44193 160.67404 163.02523 167.25734 174.31089 179.48348 185.59654 190.2989 194.06079 198.76316 203.46552 207.69763 210.04882 212.87023 217.10234 221.33446 228.38799 232.6201 236.85222 241.08434 246.25693 249.30948 254.01184 258.7142 261.06538 265.2975">sity,Thandalam,Chennai-602105,India.</tspan></text>
<text xml:space="preserve" transform="matrix(1 0 -0 1 0 841.89)" font-size="11.9552" font-family="CMR12"><tspan y="-482.09205" x="114.304 121.62058 128.1242 134.62784 140.48589 145.10059 152.99102 158.19153 164.04958 170.5532 175.75373 180.95424 190.15975 196.65143 202.50948 211.77475 217.6328 220.88462 229.01416 234.53746 240.71829 249.98357 256.80998 262.01048 267.21098 278.3532 288.84989 295.35353 300.55403 306.41209 312.9157 316.1675 326.99894 332.857 339.36064 350.50288 357.0065 360.2583 366.11637 371.97444 378.47807 384.33613 388.95085 393.50578 396.75758 406.59669 416.3521 421.5526 426.10755 432.61119 438.79203 449.94624 453.52085 459.36695 468.57246 471.82426 478.32789 484.8315 495.3282 499.88313 506.38676">Lungs&#x2019;cancerhasalwaysbeenadeadlyanddiagnosticmethodforlungtu-</tspan><tspan y="-467.64704" x="114.304 124.05945 129.9175 136.42113 140.97606 150.48044 155.03537 161.539 167.39705 176.8536 184.98316 190.18367 194.7386 199.93912 206.44275 209.69457 219.13918 225.6428 237.03612 241.59105 252.35073 256.90565 263.40928 273.49946 283.25489 289.11296 293.66789 304.75038 309.3053 315.80894 321.00944 332.40275 338.90638 345.41 355.50019 360.0551 370.81483 376.33815 382.1962 386.75114 390.00294 395.861 400.41593 403.66773 409.5258 420.93107 424.18287 435.57618 438.82798 444.02848 448.6432 451.895 457.75306 464.25669 468.8714 480.3125 488.76484 495.26847 500.46897 505.08369">moursthatweren&#x2019;tuptothemarkthenduetovariationinlesions.These</tspan><tspan y="-453.20103" x="114.304 118.85893 124.05945 128.67415 133.87467 139.73271 144.28765 149.16538 155.669 160.86952 165.42446 175.00057 181.5042 186.05913 191.91718 198.74359 204.60164 209.21634 214.41686 225.89385 236.7133 241.328 246.52852 252.38657 262.142 267.3425 273.52336 278.07829 283.93635 288.49128 291.74308 297.60115 309.06617 313.6211 318.8216 323.6993 330.20295 336.70658 339.95838 346.13923 352.64286 362.80476 369.30839 373.9231 377.1749 383.67854 394.50996 399.06489 405.55656 415.7304 423.36979 430.68638 439.86796 448.32029 451.57209 458.0757 462.69044 467.24537 472.44587 481.97416 492.69798 497.89848 503.75654">researchersproposedasegmentationtechniqueusingtheFLIClusterMean</tspan><tspan y="-438.755" x="114.304 120.16205 123.413867 129.27191 135.12996 139.68489 142.9367 147.49164 153.99527 167.68398 171.25858 177.11663 185.60482 190.21952 195.42003 201.27808 211.03353 216.23404 222.41489 226.96982 232.82787 237.3828 240.63462 246.49266 256.92958 262.78764 269.29127 279.72816 283.30278 289.8064 294.36134 298.91627 305.4199 310.6204 319.10859 324.30909 327.56089 334.0645 338.67924 343.23417 348.43467 352.9896 356.2414 362.74504 372.53636 375.78816 384.33613 390.83976 396.6978 403.20146 412.3352 416.89015 426.69343 432.55149 437.41725 443.92088 447.17268 452.37318 458.23124 467.365 473.22306 478.42356 483.62406 490.1277 494.68263 500.54069 505.0956">algorithmforsegmentationandfurtherclusteringisdonetoachieveaccurate</tspan><tspan y="-424.309" x="114.304 118.85893 124.05945 128.67415 135.17778 138.4296 142.98453 151.99875 157.8568 161.4314 165.98633 171.18685 180.1413 188.59363 195.09726 198.34908 203.2268 214.12996 222.09212 228.59575 234.4538 244.06578 250.56941 255.75798 260.31294 265.51344 270.71394 275.26887 278.52067 284.37873 295.29383 303.4114 309.26948 318.29566 324.7993 330.65736 337.16099 346.761 351.31593 361.5735 366.774 372.95484 377.50978 382.0647 387.92277 393.12327 402.0777 405.6523 410.8528 416.71089 421.2658 427.76945 432.32438 437.52488 446.5391 452.39717 458.9008 469.80393 478.25627 481.50807 487.36613 491.98085 496.59556 499.84736 503.0932 506.35099">resultsafterwhichEdgedetectionwasdonetoextractfeaturesandClassifi-</tspan><tspan y="-409.86299" x="114.304 119.50452 125.362567 129.9175 133.16931 139.02736 149.42839 152.6802 161.20426 167.0623 171.92807 178.4317 181.68352 186.88404 192.74208 197.9426 208.34363 214.84726 219.46196 222.71378 229.2174 238.9848 247.26976 253.1278 258.00553 268.08378 276.04594 280.60087 286.45893 292.96257 298.82063 304.67869 310.53675 315.09169 318.34349 324.20155 334.60258 343.3777 348.5782 352.81034 360.93989 366.79795 371.35289 377.53373">cationisachievedusingBackPropagationNetwork.</tspan><tspan y="-395.41798" x="114.304 118.524188 126.97651 131.53144 136.73195 141.34665 147.85028 151.1021 155.65703 160.85755 171.27053 174.52234 184.92337 188.49797 194.35602 202.80835 209.64673 214.84725 219.40218 223.94516 229.14568 237.60996 243.468 248.66852 253.86904 260.37266 264.92759 270.78565 275.98616 286.0644 290.61933 297.12297 302.98103 313.38206 318.58256 324.7634 328.0152 332.6299 337.18486 340.43666 346.94029 356.7077 366.46315 371.66365 376.21858 382.7222 388.90306 395.40669 403.9188 409.77687 417.24888 421.8038 428.30744 434.1655 442.6298 447.18473 450.43653 460.19197 465.39247">Itresultedinfarbetteraccuracythanexistingmethodsofthattime.</tspan></text>
<text xml:space="preserve" transform="matrix(1 0 -0 1 0 841.89)" font-size="11.9552" font-family="CMR12"><tspan y="-343.60398" x="99.347 105.20505">5.</tspan></text>
<text xml:space="preserve" transform="matrix(1 0 -0 1 0 841.89)" font-size="11.9552" font-family="CMBX12" font-weight="bold"><tspan y="-343.60398" x="114.304 124.60938 130.7424 138.2144 143.5225 156.38629 166.95468 177.11661 194.36795 200.90744 208.37944 222.58222 233.42559 240.89759 244.63956 249.87593 253.6179 258.1011 261.84309 268.01197 274.74275 280.87577 293.10594 299.64543 304.8818 310.1182 316.25123 323.3526 328.589 332.33097 339.06175 353.26454 360.7365 367.276 372.5841 378.71714 392.91993 396.6619 402.79493 408.10304 411.845 418.57579 432.77857 438.08668 444.2197 450.95048 462.16447 468.2975 475.39888 480.63526 487.17475 492.41114 496.1531 502.88389">DenseGANandmulti-layerattentionbasedlesionsegmentation</tspan><tspan y="-329.15898" x="114.304 125.517978 131.65099 136.88736 144.35936 151.46074 163.41594 167.52854 174.25931 184.2419 193.96147 203.69301 213.85494 218.86417 229.16956 233.65276 240.38353 251.5975 261.31709 275.14927 278.89125 290.10523 296.6447 303.3755 309.5085">methodforCOVID-19CTimages</tspan></text>
<text xml:space="preserve" transform="matrix(1 0 -0 1 0 841.89)" font-size="7.9701" font-family="CMR8"><tspan y="-329.15898" x="318.648 324.64155 331.93418 336.28587 343.80964 348.98225 353.6846 357.91673 362.61909 366.8512 372.02378 377.31593 382.01829 386.72065 391.423 396.12538 400.35749 407.88127 413.5241 421.04789 425.28 431.39308 435.15498 437.50614">ByJuZhang,LunduanYuatel.</tspan><tspan y="-314.71296" x="114.304019 120.41708 124.88831 128.17996 131.47162 136.17398 139.51346 141.86464 146.09676 150.32888 155.03124 159.26335 161.61454 163.96572 168.19783 171.49745 175.72957 179.96169 184.18584 188.41796 190.76914 195.00125 199.23337 203.46549 207.6976 211.92972 214.52 216.87119 221.57355 224.91303 229.85449 233.61638 235.96756 240.19968 244.4318 248.66391 252.89603 255.24721 259.47935 263.71147 267.94358 272.1757 276.39985 283.46134">(https://doi.org/10.1016/j.bspc.2021.102901)</tspan><tspan y="-300.26695" x="114.304019 121.35756 126.53015 131.23252 133.5837 136.17398 138.52516 142.75728 147.45964 154.51317 160.62624 164.85836 167.20954 169.56072 173.3226 177.55472 184.13802 188.37014 193.78981 198.9624 203.66477 207.42665 210.01694 212.36812 216.60024 221.3026 228.35613 234.70032 239.40268 241.75386 245.98598 249.74787 253.04749 256.38697 258.73814 261.79866 269.09129 273.3234 278.73509 284.1388 287.9007 291.43147 296.13383 300.83619 305.0683 307.41947 311.65159 315.8837 319.64558 324.81816 329.5205 334.22288 338.455 342.45597 346.9272 349.27836 353.9807 361.03425 365.26637 369.49848 373.7306 377.9627 382.19483 386.42695 391.59953 397.7126 402.41496 404.7661 409.46849">1ZhijiangCollegeofZhejiangUniversityofTechnology,Shaoxing312030,China</tspan><tspan y="-285.82093" x="114.304019 121.006877 127.11994 131.35207 133.70325 136.05443 139.81632 144.04843 150.27309 154.5052 159.56623 165.67929 169.9114 176.96495 181.66732 186.36968 189.66133 193.42322 199.18561 203.88797 207.64986 210.00104 213.76293 218.46529 222.22718 228.4598 232.69191 237.39427 244.5594 249.9711 253.73299 257.25578 261.95814 266.6605 270.8926 273.24378 277.4759 281.708 288.64997 293.82258 298.52494 302.28684 304.8771 307.22828 311.4604 316.16276 322.85765 329.20185 333.9042 336.25538 340.49546 344.25736 347.55699 350.89646 353.24763 356.30018 363.24214 367.47425 372.52729 377.939 381.7009 385.2237 389.92607 394.62843 398.86054 401.2117 405.44383 409.67594 413.4458 418.33146 424.67567 428.90779 433.61015 437.84226 441.60417 446.30653 450.53865 457.71174 461.94386 466.17597 470.40809 474.6402 478.8723 483.10444 487.99009 494.10316 498.8055 501.15669 505.85905">2CollegeofComputerScienceandTechnologyZhejiangUniversityofTechnology,Hangzhou310023,China</tspan><tspan y="-271.3749" x="114.304019 121.35756 127.47063 131.70275 134.05393 136.4051 140.16699 144.39911 150.9824 155.21453 160.62622 163.68674 168.38114 170.97142 175.20354 178.50316 185.5567 189.78882 193.08048 195.43166 199.66378 207.19553 212.95792 217.65232 221.88443 224.23561 228.93798 232.70783 236.46971 239.76934 242.12052 246.82288 251.04703 256.2276 261.4002 266.10258 269.86448 272.45475 274.8059 279.03804 283.7404 290.7939 297.13813 301.84049 304.19166 308.42378 312.18568 315.4853 318.82478 321.17594 324.23646 331.52909 335.7612 341.17289 346.5846 350.3465 353.8693 358.57167 363.27403 367.50614 369.8573 374.08943 378.32154 382.0834 387.26396 393.60816 397.84028 402.54264 406.77476 410.53666 415.239 419.47114 426.9949 431.22703 435.45915 439.69126 443.92338 448.14753 452.37965 457.56019 463.67326 468.3756 470.72679 475.42915">3CollegeofInformationEngineering,ZhejiangUniversityofTechnology,Hangzhou310023,China</tspan><tspan y="-256.9299" x="114.304019 121.35756 127.82131 131.5832 136.28557 140.51769 143.8173 147.10897 154.1625 157.9244 162.39562 168.50868 172.7408 178.1525 185.90741 189.6693 194.37166 196.72284 200.48473 204.71685 209.88944 212.94199 219.99553 224.22765 228.45977 230.81095 235.5133 239.74542 244.91802 250.0906 254.79297 258.55488 261.14515 263.4963 267.72843 272.4308 279.49229 285.8365 290.0686 293.40809 298.10249 300.4616 303.75328 307.97743 310.33656 315.50914 321.85334 326.08546 330.7878 335.01994 338.78184 343.4842 347.7163 355.24009 359.4722 363.7043 367.93644 372.16856 376.40068 380.63279 385.80537 391.91844 396.6208 398.97196 403.67433">4DepartmentofMedicalImaging,ZhejiangHospital,Hangzhou310013,China</tspan></text>
<text xml:space="preserve" transform="matrix(1 0 -0 1 0 841.89)" font-size="11.9552" font-family="CMR12"><tspan y="-209.3539" x="114.304019 121.77602 126.97653 131.59123 136.14617 139.39798 145.90161 155.13103 160.98908 167.4927 177.3677 181.9824 187.18292 191.73786 196.93837 202.13889 208.64252 211.88239 218.38602 227.61544 234.11907 240.6227 245.17763 248.42945 254.93308 264.1625 272.61485 281.38996 290.16508 294.38526 303.32777 307.22517 313.08323 322.31266 328.81629 334.67436 341.17799 347.6816 352.8821 362.63755 365.88935 374.4612 382.5788 388.43687 396.42295 405.65238 412.156 417.3565 423.21458 429.7182 435.57627 440.44203 446.94566 455.51753 459.09214 464.9502 472.8765 478.73457 484.25788 490.11595 495.31645 499.87138 506.375">TestingandscreeningduringCOVID-19pandemicwasaheadacheforgovern-</tspan><tspan y="-194.9079" x="114.304019 124.05946 129.25998 135.44083 139.99576 144.61046 155.9918 164.76692 176.16024 184.60062 193.05295 196.95035 201.56505 206.76557 212.62361 224.01692 227.26874 237.02419 242.88224 248.74028 253.92885 263.43324 271.5508 276.7513 281.30625 291.39643 296.59693 299.84873 305.04924 310.9073 320.33995 326.84358 330.09538 335.95344 341.8115 348.31513 354.1732 358.7879 363.34284 366.59465 376.67286 386.42829 391.62879 398.13243 401.38423 407.88786 417.64329 426.0119 435.76734 440.96784 447.47148 450.72328 455.92378 461.78184 469.91136 473.16316 482.91859 488.77665 494.6347 497.8865 504.39015">ments.ASCT-scanimageswerecleardiagnosticmedium,medicalimaging</tspan><tspan y="-180.46289" x="114.304019 118.85895 124.05946 128.67417 133.87468 139.73273 144.28766 149.16539 155.66902 160.86954 165.42447 173.43445 179.93808 184.49301 190.35106 197.17748 203.03553 207.65023 212.85074 222.74965 232.00298 236.5579 241.75843 246.63616 253.13979 259.6434 262.8952 269.07606 275.57969 284.17546 287.42726 297.32615 305.77848 312.2821 315.5339 320.41163 330.31053 336.81416 342.34944 348.19554 353.39604 360.0431 368.9856 374.1861 380.68974 385.30445 393.91218 403.09376 411.86888 424.03926 432.15684 438.0149 446.03684 452.54048 457.74098 463.58708 468.78758 472.03938 477.89744 484.72386 489.92436 499.8352 504.39015">researchersproposedatechniqueinwhichnovelDenseGANwasdevelopedto</tspan><tspan y="-166.01689" x="114.304019 120.16206 125.36258 133.88665 139.08716 142.33898 147.53949 153.39754 161.90964 165.16146 174.9169 180.77495 186.633 191.83351 200.41735 206.27539 212.77902 223.25179 232.0269 235.9243 244.69942 252.66158 265.07109 270.27159 276.12965 285.5623 292.06593 295.31773 301.82136 307.02186 317.4946 325.94694 329.18678 333.7417 344.21446 353.6471 360.15074 363.40254 367.95747 371.20927 375.10667 378.35847 383.89375 389.73985 394.94035 403.4644 409.32246 413.87739 418.4323 423.6328 429.81367 434.3686 437.6204 443.47846 453.93928 463.6947 468.8952 473.77293 480.27656 486.1346 492.63825 495.89006 500.50477">getclearimagesandU-NETcombinedwithmulti-layerattentionmechanism</tspan><tspan y="-151.57089" x="114.304019 122.43355 128.2916 137.40146 143.90509 148.51979 153.7203 164.73105 169.28598 179.63919 185.49724 190.69776 199.7598 205.61785 210.81836 216.01888 222.5225 227.07744 232.93549 237.49042 247.1861 250.43791 255.63843 260.25315 263.50495 269.363 280.37376 284.98847 290.18898 296.04704 305.80247 311.00297 317.17185 321.72679 327.58485 332.13978 335.39158 341.24964 347.75328 358.0108 364.66987 371.1735 375.72843 380.28337 386.787 391.9875 401.04954 405.60447 410.80497 414.05677 419.91484 424.46977 429.67027 440.66905 448.79859 454.65666 459.21159 469.89955 474.4425 479.643 484.25773 490.76136 494.01316 498.56809 503.7686">wasusedtogetaccuratelesionsegmentation.Furtherrelatedworkresulted</tspan><tspan y="-137.1249" x="114.304019 117.55583 127.956859 136.89936 142.09987 148.6035 153.2182 162.32807 171.50966 176.71018 183.2138 188.41432 192.96926 198.8273 203.38224 206.63405 212.48014 221.59 230.36511 236.86875 242.71483 247.91535 252.47028 257.085 262.94306 267.498 270.7498 276.60786 283.769 292.54414 297.74464 301.97679 310.09437 315.95243 320.50736 326.6882 331.24314 340.1856 349.3672 358.1423 366.91743">inDenseGenerativeAdversarialNetwork(DGAN)</tspan><tspan y="-122.678897" x="114.304019 122.26618 126.82111 132.02162 137.22214 140.47396 145.08866 148.34047 154.19852 164.59955 170.7804 180.85863 185.41356 191.91719 195.169 203.69306 210.19669 214.75162 220.60967 227.43608 233.29413 237.90883 243.10935 253.51038 263.2658 268.4663 273.02125 279.52488 285.70573 296.1187 304.2363 310.09437 318.61845 324.4765 332.98863 339.49226 342.74406 348.6021 359.00315 365.50679 375.91978 380.4747 390.23017 396.08824 399.34004 405.1981 411.05616">Precisionbythisproposedmethodwasashighupto0.94.</tspan></text>
<text xml:space="preserve" transform="matrix(1 0 -0 1 0 841.89)" font-size="11.9552" font-family="CMR12"><tspan y="-70.86589" x="99.347019 105.20506">6.</tspan></text>
<text xml:space="preserve" transform="matrix(1 0 -0 1 0 841.89)" font-size="11.9552" font-family="CMBX12" font-weight="bold"><tspan y="-70.86589" x="114.304019 122.385738 128.92523 136.76784 142.90085 146.64282 151.12602 158.46652 163.95397 170.09893 180.71514 188.18714 194.32015 201.05092 212.2649 218.3979 225.48734 230.72371 237.2632 242.49958 246.24155 252.97232 264.92756 271.65834 280.25413 289.9737 299.70524 309.86717 314.87638 325.18177 329.66499 336.39576 347.60975 355.69148 361.8245 367.1326 370.87458 377.60536 385.07734 394.86866 398.61064 410.56587 418.64759 426.11958 433.59156 444.80555 454.52513">Label-FreeSegmentationofCOVID-19LesionsinLungCT</tspan></text>
<text xml:space="preserve" transform="matrix(1 0 -0 1 0 841.89)" font-size="11.9552" font-family="CMR12"><tspan y="-40.97789" x="292.92304 296.17485">iv</tspan></text>
</g>
</svg>
