<?xml version="1.0" encoding="UTF-8" standalone="no"?>
<!DOCTYPE svg PUBLIC "-//W3C//DTD SVG 1.1//EN" "http://www.w3.org/Graphics/SVG/1.1/DTD/svg11.dtd">
<svg xmlns="http://www.w3.org/2000/svg" xmlns:xlink="http://www.w3.org/1999/xlink" version="1.1" width="595.276pt" height="841.89pt" viewBox="0 0 595.276 841.89">
<g enable-background="new">
<text xml:space="preserve" transform="matrix(1 0 -0 1 0 841.89)" font-size="17.2154" font-family="CMBX12" font-weight="bold"><tspan y="-759.068" x="114.304 123.99627 129.38469 158.44429 172.88802 181.71952 189.36316 200.12279 205.51122 213.05156">0.4Results</tspan></text>
<text xml:space="preserve" transform="matrix(1 0 -0 1 0 841.89)" font-size="14.3462" font-family="CMBX12" font-weight="bold"><tspan y="-724.315" x="114.304 122.38091 126.87128 134.94818 139.43854 163.65493 173.52512 180.88472 187.25444 193.53807 198.02843 206.9948 220.45153 232.6458 239.8189 246.99199 255.95836 262.55763 270.405 277.5781">0.4.1TestingAccuracy</tspan></text>
<text xml:space="preserve" transform="matrix(1 0 -0 1 0 841.89)" font-size="11.9552" font-family="CMR12"><tspan y="-697.167" x="114.304 123.24649 129.10454 133.65947 142.88889 151.01844 156.87648 164.86255 171.36618 174.618 180.79883 184.05065 190.55428 195.75479 205.61783 208.86965 215.05049 219.60543 228.83484 234.69289 243.9223 250.74872 255.94924 260.50416 265.70466 270.90516 277.086 285.0123 289.56724 294.12217 299.98023 303.23204 309.73567 312.98747 319.4911 328.72053 334.57859 341.0822 350.94526 356.8033 366.03276 372.87113 378.07164 382.62657 387.8151 393.0156 399.19645 407.12275 411.67768 416.87818 421.4929 426.04783 429.29963 435.80326 445.03269 450.89076 457.39439 467.26939 473.45024 483.00245 491.77757 500.55268 505.75318">Datawasdividedinto80percenttrainingand20percenttestingandbyUNet</tspan><tspan y="-682.721" x="114.304 122.756328 126.00814 130.56308 140.46199 146.32004 150.87497 155.4299 160.63042 166.81127 171.3662 174.61801 180.46411 190.36302 200.11847 206.2993 212.80294 218.00345 224.65055 232.78009 241.37589 247.23394 252.11167 258.6153 261.8671 267.0676 272.9137 278.1142 288.0131 292.23329 298.09135 310.26173 316.11979 323.08967 328.94773 332.19953 338.0576 343.91566 349.7737 355.63179 361.48985 367.3479 373.20597 382.4593 388.31736 398.21626 402.77119 409.2748 417.85865 424.36228 427.61408 433.79493 438.99543 445.6425 452.14613 458.00419 462.6189 467.8194 477.7183 482.27323 487.47373 492.08845 498.59208 501.84388 506.3988">withattentionmodelweachievedIoUof0.60990273onthepixelbasedresult-</tspan><tspan y="-668.276" x="114.304 117.55582 124.05945 133.8149 137.06671 147.47969 151.05429 156.91234 161.46727 175.12012 180.97817 188.45017 198.20561 204.06366 208.67836 214.85919 223.31153 231.27368 235.82862 241.02913 247.53276 250.78458 255.98509 260.54005 265.74055 276.15354 285.90898 291.76704 296.38175 302.5626 311.0747 316.93278 321.4877 330.5856 336.44367 340.9986 345.55354 351.4116 356.2893 362.79295 367.99345 378.39448 385.23286 390.4214 393.6732 399.20848">inginformofmask.Predictedmasksareattachedbelow</tspan></text>
<text xml:space="preserve" transform="matrix(1 0 -0 1 0 841.89)" font-size="11.9552" font-family="CMR12"><tspan y="-40.978029" x="292.923 296.1748">ix</tspan></text>
</g>
</svg>
