<?xml version="1.0" encoding="UTF-8" standalone="no"?>
<!DOCTYPE svg PUBLIC "-//W3C//DTD SVG 1.1//EN" "http://www.w3.org/Graphics/SVG/1.1/DTD/svg11.dtd">
<svg xmlns="http://www.w3.org/2000/svg" xmlns:xlink="http://www.w3.org/1999/xlink" version="1.1" width="595.276pt" height="841.89pt" viewBox="0 0 595.276 841.89">
<g enable-background="new">
<text xml:space="preserve" transform="matrix(1 0 -0 1 0 841.89)" font-size="7.9701" font-family="CMR8"><tspan y="-759.068" x="114.304 120.297519 127.00835 133.59165 135.94283 140.64519 144.8773 148.21678 152.4489 157.15126 163.62297 169.25783 173.48995 177.72206 182.43239 187.13475 190.4264 195.12877 199.83113 203.59302 208.06424 213.59549 221.3504 225.11229 231.92673 236.8682 240.63008 243.9297 248.63207 251.68462 257.447 263.20939 268.97178 273.56254 278.85469 283.4534 289.7976 292.14878 296.3809 300.613 305.31535 313.07026 316.83216 323.65455 328.58805 332.34996 335.64958 340.3599 343.41246 349.17485 354.93724 360.69963 365.29039 370.82164 374.58354 376.9347 381.63706 385.86918 390.57154 397.04325 402.3354 404.68656 411.6285 415.86064 420.563 427.50495 432.2073 436.79808 443.3734 447.1353 451.60655 453.9577 460.89967 466.07228 470.77464 475.00675 479.7091 484.41145 489.23338 492.99528 495.34645 497.6976 501.6906 507.80369">ByQingsongYao,StudentMember,IEEE,LiXiao,Member,IEEE,PeihangLiuandS.KevinZhou,Fellow,</tspan><tspan y="-744.623" x="114.304 117.35655 123.118938 128.88132">IEEE</tspan><tspan y="-730.177" x="114.304 120.41707 124.8883 128.17995 131.4716 136.17397 139.51345 141.86463 146.09674 150.32886 154.56098 157.8606 162.33182 164.683 169.15422 171.5054 175.73752 179.03714 183.26129 187.49341 192.43488 197.13724 199.72753 203.95964 208.19176 212.42388 216.65599 220.8881 223.23929 227.4714 231.70352 235.93564 240.16776 244.39987 246.75106 251.68456 256.3869 261.79859">(https://arxiv.org/pdf/2009.06456.pdf)</tspan><tspan y="-715.731" x="114.304 121.357547 124.410099 129.11246 132.45194 135.74359 138.09477 141.38643 146.08879 149.38045 155.96375 160.19586 165.61554 171.72064 175.95276 183.0063 187.70867 192.41103 195.70269 198.05387 202.75623 209.81774 215.22147 218.98336 222.5141 227.21646 231.91883 236.15094 238.50212 242.73424 246.95839 250.72824 255.90084 262.0139 266.71626 269.0674 273.76979 277.53169 280.87117 287.45448 293.79869 297.56059 301.7927 306.49507 310.25697 317.07936 324.37199 328.6041 334.01579 338.71815 342.48005 344.8312 348.5931 353.29548 357.05738 360.81929">1InstituteofComputingTechnology,ChineseAcademyofSciences</tspan></text>
<text xml:space="preserve" transform="matrix(1 0 -0 1 0 841.89)" font-size="11.9552" font-family="CMR12"><tspan y="-667.412" x="114.304 123.24649 129.75012 134.30506 137.55687 144.0605 154.33002 158.88495 165.38858 175.00057 181.5042 187.36225 193.86588 200.3695 205.57003 215.31352 218.56534 223.76586 231.56064 236.11557 242.6192 247.81972 252.37465 261.98664 270.11619 275.96229 284.98847 295.258 299.8727 306.37635 312.2344 316.78935 321.34428 327.20234 333.0604 342.67237 348.53044 356.5165 359.7683 365.62638 372.4528 377.6533 380.9051 384.1569 389.3574 400.2725 403.5243 413.27973 419.1378 424.99586 430.19636 434.81108 442.59388 451.0462 457.54985 460.80165 465.67936 476.59446 482.4525 487.00746 496.61943 501.17436 506.37486">Duringthepandemic,therewasashortageoflabelledimages,whicharere-</tspan><tspan y="-652.966" x="114.304 120.48484 126.98847 130.24028 134.79521 139.99573 152.08245 155.65705 161.51509 171.6531 183.10619 187.66112 192.86164 196.11345 199.36527 205.22332 211.72695 214.97876 225.76236 230.37706 236.2351 239.48693 245.99056 250.54549 253.7973 259.65538 271.74208 275.31669 281.17475 291.31275 295.86769 302.3713 313.16685 319.67048 322.92228 328.76838 334.62644 341.13008 346.98814 351.60285 354.85466 365.0644 370.92247 380.08015 388.53248 402.56788 409.0715 414.92958 419.54429 424.74479 436.83149 445.2838 454.0709 462.846 467.0662 481.59175 484.84355 490.04405 494.65876 497.91056 503.76863">quiredforareliablesolutionforthediagnosisofCTbasedCOVIDlesion</tspan><tspan y="-638.521" x="114.304 118.91871 124.119228 129.97728 139.73273 144.93325 151.11409 155.66902 161.52707 166.082 169.33382 175.19187 181.6955 193.38768 202.1628 207.36331 211.91825 222.10408 226.65901 233.16265 238.36316 249.52931 254.72983 260.5879 270.34333 280.52915 287.03279 298.50978 306.9621 310.2139 314.76884 326.25779 337.10118 340.35298 346.21104 353.03746 358.23796 361.48976 365.38716 368.96177 373.5167 378.7172 388.903 393.51774 399.3758 402.6276 409.13124 413.68617 416.93797 422.79603 434.28498 440.45387 451.62004 461.37547 467.23353 473.41438 476.66618 483.1698 494.01319 498.5681 505.07176">segmentation.Heretheycameupwithalabel-freesolutionbymakingthe</tspan><tspan y="-624.075" x="114.304 124.05945 130.24028 136.74391 141.94443 148.93822 152.19004 157.39055 163.2486 167.80353 178.0611 182.6758 187.23073 191.78566 197.6437 204.14734 213.74736 220.25099 226.10904 230.66397 235.2189 240.41942 244.97435 251.47798 259.83467 265.69273 273.0093 276.2611 281.4616 286.07633 289.32814 295.1862 301.68983 306.30455 314.709 323.16136 329.66499 334.86549 344.7883 349.403 355.58387 361.7647 366.31965 372.82328 378.02378 382.6385 385.8903 391.0908 396.2913 406.5369 409.7887 414.9892 419.6039 422.8557 428.71379 435.2174 443.5741 447.1487 451.70365 457.5617 471.07109 479.5234 486.02705 489.27885 494.1446 504.40217">modellearnstrongpatternsoflesions.Theysynthesizedlesionsfromwhicha</tspan><tspan y="-609.629" x="114.304 120.80763 126.66568 131.22061 140.97606 146.8341 150.08592 155.28644 161.46727 165.36467 169.9196 175.12012 180.32064 186.17868 192.03673 198.54036 201.79218 206.99269 210.2445 216.74814 226.9818 233.48543 238.674 242.90615 251.03569 256.89375 261.44868 272.00514 280.13468 285.99275 294.98307 298.23487 303.43537 309.29344 313.84837 320.01725 328.94779 337.40013 343.90376 347.15556 352.03327 362.9125 367.52723 372.72773 379.23136 385.08943 389.64436 395.5024 400.05735 405.25785 414.24818 420.7518 426.60987 431.1648 440.92024 446.76634 454.39375 458.94868 462.20048 466.8152 471.4299 477.93354 487.50965 495.96199 499.21379 503.7687">normalcy-recognizingnetworkwaslearntwhichseparatesnormaltissuewith</tspan><tspan y="-595.18307" x="114.304 117.55582 122.75633 127.37104 130.62285 136.4809 142.98453 147.59923">lesions.</tspan><tspan y="-580.73709" x="114.304 122.756328 129.25995 132.51177 141.02387 149.15341 155.01146 159.56639 169.64463 175.50267 182.0063 186.56124 193.39962 198.60013 203.15506 206.72966 212.57576 217.13069 226.88614 232.08666 242.49964 252.25508 258.11314 262.72785 271.18019 277.6838 284.18745 288.80216 295.3058 302.1322 307.3327 311.88764 318.06849 321.32029 325.935 331.1355 341.53654 347.3946 353.89823 359.7563 369.51173 375.36979 378.62159 388.7118 395.21543 400.41593 404.97087 410.17137 415.37187 419.9268 423.1786 429.03666 439.43769 449.1931 454.39363 458.94856 465.45219 471.63304 478.13667 482.75138">Thisworkoutperformedmostunsupervisedanomalydetectionmethods.</tspan></text>
<text xml:space="preserve" transform="matrix(1 0 -0 1 0 841.89)" font-size="11.9552" font-family="CMR12"><tspan y="-527.4371" x="99.347 105.20505">7.</tspan></text>
<text xml:space="preserve" transform="matrix(1 0 -0 1 0 841.89)" font-size="11.9552" font-family="CMBX12" font-weight="bold"><tspan y="-527.4371" x="114.304 121.03478 135.82337 146.39176 155.21469 165.73526 174.5582 184.58861 194.75054 207.31545 215.39716 224.2201 231.6921 236.70133 246.80347 261.80726 269.27925 278.10218 288.67057 301.42677 310.2497 320.77027 328.99546 338.04554 347.3945 352.40373 362.50587 377.50965 382.51887 397.52265 407.24223">3DGENERALLESIONSEGMENTATIONINCT</tspan></text>
<text xml:space="preserve" transform="matrix(1 0 -0 1 0 841.89)" font-size="7.9701" font-family="CMR8"><tspan y="-508.01008" x="114.304 120.297519 127.590167 135.34508 139.5772 142.87682 145.228 148.98989 151.8113 157.57367 159.92485 163.68674 166.98636 170.28598 176.86928 181.22095 185.45307 187.80425 190.15543 197.45604 201.68816 206.38256 213.9143 219.20645 222.96834 230.02187 236.66893 239.96855 244.20067 248.90303">ByMarie-PierreJollyandLeoGrady</tspan><tspan y="-493.56407" x="114.304 120.41707 124.8883 128.17995 131.4716 136.17397 139.51345 141.86463 146.09674 150.32886 156.44193 162.555 168.66806 171.01924 175.25136 179.01325 183.24536 187.94773 191.70961 198.76316 201.11434 205.34645 207.69763 211.45952 216.16188 220.86425 225.09636 229.32848 233.55263 237.78475 242.01686 246.24898 250.4811 257.53465">(https://www.academia.edu/9551756)</tspan><tspan y="-479.11805" x="114.304 121.357547 124.410099 131.46364 135.69576 139.92787 142.27906 146.98142 154.03495 158.26706 162.96942 170.4932 176.8374 179.19655 182.53603 187.23043 191.46254 193.81372 196.17287 199.93476 204.16687 207.45853 209.80971 214.04183 221.5656 228.02935 231.79123 236.49359 240.72571 244.02533 247.31699 254.37053 258.13243 262.59568 268.70875 274.47114 277.77076 280.12193 284.82429 288.58619 292.34809 295.63975 299.87187 304.57423 309.75477 316.09898 320.45066 325.62324 331.96745 336.6698">1ImagingandVisualizationDepartmentPrinceton,NJ,USA</tspan></text>
<text xml:space="preserve" transform="matrix(1 0 -0 1 0 841.89)" font-size="11.9552" font-family="CMR12"><tspan y="-430.79905" x="114.304 123.24649 129.75012 138.0829 142.63784 151.62815 158.13178 161.38359 167.24164 172.44216 176.99709 181.61179 184.8636 189.09575 198.40885 201.66066 211.29656 215.85149 222.35512 230.6879 234.92005 241.10088 247.92729 253.1278 257.74253 264.282 268.89674 275.40037 281.25843 288.08485 293.28535 301.03233 306.89039 313.394 323.04188 327.5968 332.7973 338.97816 343.52113 350.02476 354.57969 359.78019 367.53913 373.3972 380.10408 383.35588 388.55638 393.17109 396.42289 402.28096 408.78459 413.3993 419.93879 423.19059 430.87779 434.12959 441.87657 446.4315 451.632 457.49006 460.74186 463.99366 473.30677 479.8104 485.66847 490.2234 499.85929 504.4142">Duetodiversityinthetypes,shapesandtexturesoflesions,itisreallyhardto</tspan><tspan y="-416.35404" x="114.304 119.50452 125.362567 135.11801 143.96486 152.41719 155.669 160.22394 170.3739 179.87828 184.49298 190.35103 193.60285 200.10648 204.6614 207.91323 213.77127 223.92124 232.05078 237.90883 242.46376 248.64459 251.89641 258.40003 267.90443 271.47904 277.3371 285.53837 290.73887 296.58497 301.78547 306.3404 316.16758 320.39973 326.58058 333.40699 342.2538 348.11189 355.33283 358.58464 363.78514 368.39985 371.65165 377.5097 387.65968 390.91148 401.0734 410.5778 419.03013 427.48246 434.38059 442.83293 449.33656 454.5251 464.36424 470.86787 475.41084 481.2689 488.10728 493.96534 498.58006 503.78056">comewithasolutionworkingforeverytypeoflesioninaCT.Theyproposed</tspan><tspan y="-401.90803" x="114.304 120.16205 130.56308 136.42113 139.67295 145.53099 151.38904 155.94397 159.19579 163.75072 170.25435 183.91915 192.37148 198.86316 204.06368 208.6186 217.72847 223.58652 230.09015 239.18807 244.38858 250.24663 260.64765 265.26237 270.46287 276.32093 286.07637 291.27687 297.4577 305.922 311.7681 317.94895 328.03916 334.22 337.4718 343.97544 354.37648 360.23454 367.70655 370.95835 376.15885 380.77357 384.02537 389.88343 400.29643 403.54823 413.94926 423.7047 432.15705 444.51875 447.77055 457.52598 463.38404 469.2421 474.43064">analgorithmwhereonecansegmentanykindoflesioninaCTimage.</tspan><tspan y="-387.462" x="114.304 122.756328 129.25995 138.4296 144.28765 147.53946 153.3975 159.25556 163.81049 167.0623 171.61724 178.12087 191.84545 195.09726 203.69304 210.19667 215.39719 222.2236 227.42412 233.92775 240.43138 246.28943 252.45832 260.99433 266.8524 277.32514 287.1523 292.3528 295.6046 298.8564 303.73414 313.8841 319.74217 328.27818 332.89289 337.4478 342.00276 347.8608 353.7069 362.8885 366.1403 372.64393 377.25865 380.51045 387.01408 396.1837 400.73863 407.24226 416.41188 419.66368 424.86418 429.47889 432.73069 438.58876 449.0615 454.91957 461.4232 471.9079 476.46284 481.66334 491.4068 496.6073 506.36274">Thealgorithmisdependantonaclickorstrokeinsidethelesionandremem-</tspan><tspan y="-373.016" x="114.304 121.130428 126.33094 130.88587 139.54143 142.79325 147.34818 155.99178 162.4954 167.05034 172.90839 179.7348 184.93532 189.49025 194.04518 197.297 202.49752 211.14112 214.39293 224.93743 230.79547 239.73796 247.01868 255.7938 259.3684 263.92335 269.12385 273.67878 281.80833 287.66639 292.2213 298.72496 303.33967 310.65623 315.21116 321.71479 330.94419 342.00276 347.8608 351.1126 356.9587 362.1592 370.755 376.61308 379.86488 385.72294 391.581 396.13594 399.38774 403.94267 410.4463 424.23063 430.73426 436.59233 445.23594 452.0743 457.2748 462.4753 473.00785 479.51148 484.1262 489.3267 499.85923 504.41416">bersitspropertiesin2D.Afterwards,theWalkeralgorithmhasbeenusedto</tspan><tspan y="-358.56999" x="114.304 120.80763 125.362567 131.5434 138.04703 144.55066 149.75118 158.45456 167.88722 174.39086 177.64267 182.1976 185.44942 191.95305 195.20487 203.90825 209.7663 222.22362 226.83832 232.03884 237.89688 247.65233 252.85285 259.02174 263.57667 269.43473 273.98966 277.24147 283.09953 293.11799 298.96409 305.4677 310.02265 316.52629 323.0299 327.58485 335.7144 341.57246 348.07609 358.08259 367.4435 371.99845 377.19895 381.81367 388.3173 391.5691 396.12403 399.37583 405.87947 415.2404 418.48625 421.74403 428.24766 434.1057 440.87236 446.7304 459.17579 463.7905 468.991 474.84907 484.6045 489.805 495.98585 500.54078 506.39884">producemultiple2Dsegmentationoutputsandaresultingfinal3Dsegmenta-</tspan><tspan y="-344.12498" x="114.304 118.85893 122.11075 127.968799 134.47243">tion.</tspan><tspan y="-329.67897" x="114.304 122.756328 129.25995 138.35787 144.5387 151.04233 156.90038 163.08123 167.63616 170.88797 175.4429 181.30095 185.85588 189.1077 194.96575 204.06366 209.9217 216.42534 222.28339 225.5352 231.71604 236.33074 239.58255 248.09465 252.70935 257.26429 263.12236 267.67729 272.87779 283.29078 286.54258 294.9949 299.54985 309.3053 316.14369 325.24159 331.7452 336.35993 341.56044 351.96147 355.53608 361.39414 369.85844 375.05894 378.31074 381.56254 388.06617 391.306 396.5065 402.36457 409.52574 416.02937 422.533 427.08793 433.91435 439.7724 444.38713 449.58763 454.20234">Thequantitativeanalysisstatedittobeusedforclinicalpurposes.</tspan></text>
<text xml:space="preserve" transform="matrix(1 0 -0 1 0 841.89)" font-size="11.9552" font-family="CMR12"><tspan y="-276.37898" x="99.347 105.20505">8.</tspan></text>
<text xml:space="preserve" transform="matrix(1 0 -0 1 0 841.89)" font-size="11.9552" font-family="CMBX12" font-weight="bold"><tspan y="-276.37898" x="114.304 124.023578 130.75435 141.96833 149.44033 154.93972 161.07273 168.54473 174.67774 182.14974 187.45784 191.19982 197.9306 208.21207 217.93164 224.66242 235.87639 243.34839 249.88788 255.38727 259.12925 264.43736 271.16813 282.7886 289.51939 297.79237 308.0858 314.2188 320.35185 331.98426 340.06599 346.199 352.7385 358.23789 365.7099 369.45188 376.9239 387.80314 400.55934 407.6607 415.1327 421.26573 425.0077 434.46427 438.57685 445.30763 454.9674 463.04914 470.52113 477.9931 488.87236 495.41184 502.88386">ComprehensiveComparisonofDeepLearningModelsforLungand</tspan><tspan y="-261.93296" x="114.304 124.023578 133.75511 143.91704 148.92627 159.23166 163.71486 170.44564 181.6596 189.74132 195.87433 201.18244 204.92441 211.65518 223.61038 231.08238 237.2154 243.94617 255.16014 261.29316 268.39454 273.63093 280.1704 285.4068 289.14878 295.87956 307.83479 311.57676 323.53199 333.25157 347.08375 352.39186 358.36946 364.90895 372.38093">COVID-19LesionSegmentationinCTscans</tspan></text>
<text xml:space="preserve" transform="matrix(1 0 -0 1 0 841.89)" font-size="7.9701" font-family="CMR8"><tspan y="-242.50595" x="114.304 120.297519 127.590167 133.1214 137.35352 140.693 144.21578 148.91814 153.15026 155.50144 157.85262 164.0135 170.00702 172.3582 176.12009 180.3522 185.29367 189.52579 194.22815 196.57933 200.81145 204.15093 209.32352 215.66773 218.0189 221.54965 226.25202 230.48413 232.83531 237.06743 243.22832 248.86318 252.1628 255.92469 259.21635 263.44847 269.60935 273.84147 278.54383 286.0676 291.59886 295.36076 298.6524 301.95204 306.18415 312.34504 318.80879 323.0409 326.3405 330.57264">ByPaschalisBizopoulos,NicholasVretosandPetrosDaras</tspan><tspan y="-228.05995" x="114.304 120.41707 124.8883 128.17995 131.4716 136.17397 139.51345 141.86463 146.09674 150.32886 154.56098 157.8606 162.33182 164.683 169.15422 171.5054 175.73752 179.03714 183.26129 187.49341 192.43488 197.13724 199.72753 203.95964 208.19176 212.42388 216.65599 220.8881 223.23929 227.4714 231.70352 235.93564 240.16776 244.39987 246.75106 251.68456 256.3869 261.79859">(https://arxiv.org/pdf/2009.06412.pdf)</tspan><tspan y="-213.61396" x="114.304 122.1147 128.4589 130.81008 134.14955 138.85192 143.08403 149.00582 155.11888 159.351 166.40454 171.1069 175.80927 179.10092 181.4521 186.15447 193.96515 199.2573 203.48941 211.76238 215.99449 222.16336 225.45502 230.15738 237.48987 240.54242 245.24478 247.83507 252.06719 255.3668 262.42036 266.65248 269.94413 272.2953 276.5274 284.80836 290.21208 293.97398 297.50474 302.2071 306.90946 311.14158 313.49275 317.72486 321.95698 324.30815 328.07005 334.98014 338.03269 342.73506 346.07453 349.36619 351.71736 355.009 359.71138 363.00303 366.76493 372.878 378.99107 382.75297 387.22419 390.51585 393.81547 401.14799 403.73826 407.97038 414.84858 421.08119 424.84309 428.18257 431.94447 436.17658 439.4762 442.999 451.27995 455.51206 460.21443 468.4874 473.8991 477.661 481.1838 485.88618 490.58854 494.82066 497.1718 501.40394 505.63606">1VisualComputingLaboftheInformationTechnologiesInstitute,CentreforResearchandTechnology</tspan><tspan y="-199.16796" x="114.304 120.6482 124.41009 126.76127 129.11244 133.34456 136.68404 141.85663 147.9697 152.67206 156.43395 159.77342 163.1129 167.34502 169.6962 173.92832 178.63068 180.98186 185.45308 187.80426 192.98484 199.6319 202.93152 206.6934 210.45529 214.21718">Hellas,Thessaloniki,Greece</tspan></text>
<text xml:space="preserve" transform="matrix(1 0 -0 1 0 841.89)" font-size="11.9552" font-family="CMR12"><tspan y="-150.84896" x="114.304 123.24649 128.447 133.64752 145.08866 152.40525 157.60576 163.4638 168.01874 174.52237 177.77419 184.27782 195.07337 201.577 207.43505 216.98725 223.81366 229.01418 234.21469 245.66777 251.52582 254.77764 262.8952 268.43049 274.61134 284.16355 290.66719 295.2819 300.4824 311.92353 315.49815 321.3562 330.84864 341.57246 346.77296 353.27659 356.52839 361.72889 367.58695 375.7882 380.0084 389.76383 395.6219 401.468 411.61796 420.39308 426.8967 432.75477 436.00657 442.1874 446.80213 450.05393 454.66865 466.2293 474.68165 481.18528 484.43708 493.9893 500.49293 506.35099">DeepLearninghasbeenalwaysusedforMedicalImageAnalysis.Thispa-</tspan><tspan y="-136.40396" x="114.304 121.130428 126.33094 135.63208 140.18701 145.38753 148.96213 154.16265 158.71758 168.09044 172.64537 183.24964 193.8539 199.05442 204.91246 214.66791 221.17154 227.02959 231.58452 234.83634 239.45104 245.30908 256.55894 263.06257 268.92063 273.53535 278.73585 289.9857 294.6004 299.15534 305.65898 312.1626 323.08967 329.92805 335.12855 339.34873 347.47828 352.67878 357.87928 369.12913 375.63276 378.88456 382.29777 385.71098 390.91148 395.4664 400.6669 406.84776 416.1489 425.09138 437.15419 446.9096 453.09046 459.5941 464.7946 468.0464 477.41929 481.9742 490.74934 497.25297 502.45347 507.0084">perreferstoacomparisonbasedstudybetweendifferentDLmodels(Unet,</tspan><tspan y="-121.95796" x="114.304 121.62058 124.8724 131.37602 137.55686 144.06049 149.261 153.81594 161.73027 169.36965 177.3318 186.10692 193.86585 201.828 208.33164 216.2938 225.06891 230.26943 234.82436 243.8864 249.74445 256.24809 267.27079 273.12886 277.68379 287.3914 292.5919 298.44996 307.8826 314.38624 317.63804 324.14167 329.34217 340.3529 348.80525 352.05705 356.61198 367.6227 373.48078 383.84596 388.40089 394.25895 400.76258 407.2662 413.12428 422.8797 426.1315 436.81947 440.07127 446.5749 449.8267 454.38163 457.63343 463.4915 466.7433 469.9951 475.1956 480.3961 491.40684 497.2649 503.76853">Linknet,FPN,PSPNet)andarecombinedwith25randomlyinitializedand</tspan><tspan y="-107.51196" x="114.304 120.80763 125.362567 130.56308 134.46048 139.01541 143.57035 149.42839 152.6802 159.18384 164.38436 174.06807 179.26859 185.77222 190.97274 197.15357 203.6572 208.85771 213.41265 221.21938 229.02611 233.58104 239.10434 244.96239 249.51732 252.76914 258.6272 263.18214 266.43394 272.292 278.79563 286.6024 292.46046 299.21516 307.66749 316.84907 326.03065 332.4745 341.417 346.6175 353.12113 357.73585 362.93635 371.71147 376.91197 381.45494 388.04225 396.66194 401.86244 406.47715 415.25227 420.45277 425.0077 431.595 440.2147 445.40324 450.0299 458.80503 464.00553 470.1744 474.72935 481.31666 490.25917 498.2213 506.99644">pre-trainedencoderss(variationsofVGG,DenseNet,ResNet,ResNext,DPN,</tspan><tspan y="-93.06596" x="114.304 125.02782 130.88587 137.3895 140.64131 143.89313 149.09365 157.86876 163.06928 167.6242 174.59409 183.3692 188.56972 193.77024 200.27387 204.8288 208.08061 213.92671 220.43035 227.40023 231.6204 238.12404 243.32456 248.52507 255.0287 259.58363 262.83543 268.69349 275.1971 279.0945 285.27537 291.13343 298.1033 306.06547 309.3133 312.56114 315.8209 321.0214 324.26124 329.46174 335.64259 340.1975 348.97264 354.17314 358.72807 363.283 370.25288 374.8078 384.33613 390.19419 395.05995 401.56358 404.81538 410.01588 415.87394 424.7447 431.5711 436.7716 441.32655 445.88148 451.08198 459.30717 463.8621 469.0626 473.6773 480.18095 483.43275 487.9757 496.26069 499.8353 505.69337">MobileNet,Xception,Inception-v4,EfficientNet),toachievebetterresultsfor</tspan><tspan y="-78.619968" x="114.304 117.55582 122.75633 127.37104 130.62285 136.4809 147.65901 152.27371 157.47423 163.33228 173.08773 178.28824 184.46909 189.02402 194.88207 199.437 202.68881 208.54686 219.72498 222.97679 234.1549 237.40673 243.91036 250.41399 256.27204 265.56123 274.01356 287.1523 291.76704 296.96754 302.8256 309.31727 318.6184 324.47648 328.0511 332.60603 337.80653 347.03593 352.23643 358.09449 364.5981 369.21284 373.76777 378.3227 384.82633 390.02684 394.58177 397.83357 403.69163 414.86973 420.72779 428.97688 434.83494 440.693 451.22554 460.98097 467.1618 473.66545 478.86595 482.11775 491.41889 497.27696 503.78059">lesionsegmentationinlungsCTscansafterconstructionof200modelsand</tspan></text>
<text xml:space="preserve" transform="matrix(1 0 -0 1 0 841.89)" font-size="11.9552" font-family="CMR12"><tspan y="-40.977968" x="294.549">v</tspan></text>
</g>
</svg>
