<?xml version="1.0" encoding="UTF-8" standalone="no"?>
<!DOCTYPE svg PUBLIC "-//W3C//DTD SVG 1.1//EN" "http://www.w3.org/Graphics/SVG/1.1/DTD/svg11.dtd">
<svg xmlns="http://www.w3.org/2000/svg" xmlns:xlink="http://www.w3.org/1999/xlink" version="1.1" width="595.276pt" height="841.89pt" viewBox="0 0 595.276 841.89">
<g enable-background="new">
<text xml:space="preserve" transform="matrix(1 0 -0 1 0 841.89)" font-size="11.9552" font-family="CMR12"><tspan y="-759.068" x="114.304 118.91871 124.119228 128.67417 133.2291 136.48091 142.98455 152.73999 157.29492 163.79856 168.35349 173.554 182.66387 187.86438 194.04521 200.87163 206.07215 210.62708 213.87889 223.63434 228.83486 235.00374 239.55867 245.41672 252.57788 257.1926 262.3931 266.94804 273.45167 279.9553 284.57">settingthreeexperimentalsetups.</tspan><tspan y="-744.623" x="114.304 122.756328 129.25995 134.46047 145.4951 150.69562 156.55367 163.0573 168.25782 171.50963 178.01326 184.51689 189.7174 201.0868 207.25569 218.30229 224.80593 228.05774 233.91579 240.41942 243.67124 246.92305 252.7811 258.94999 263.5049 266.7567 273.26036 283.98417 290.4878 295.04273 300.9008 307.7272 312.9277 317.48265 322.03758 325.28938 330.48988 339.9584 344.51335 351.01698 356.87504 366.29573 372.15379 375.567 378.9802 384.1807 389.36924 398.78993 403.34486 409.84849 419.9028 426.72923 431.92973 436.48466 441.03959 446.24009 455.66078 463.7903 469.64839 474.19136 480.3722 483.624 490.12763 500.85145 506.7095">Theyconcludedbyhighlightingpropertiesthataffectthebetterworkingof</tspan><tspan y="-730.177" x="114.304 123.24649 134.46048 138.03508 143.89313 152.3574 156.91234 163.41597 166.66779 175.17989 178.75449 184.61254 191.11617">DLforthisjob.</tspan></text>
<text xml:space="preserve" transform="matrix(1 0 -0 1 0 841.89)" font-size="11.9552" font-family="CMR12"><tspan y="-676.877" x="99.347 105.20505">9.</tspan></text>
<text xml:space="preserve" transform="matrix(1 0 -0 1 0 841.89)" font-size="11.9552" font-family="CMBX12" font-weight="bold"><tspan y="-676.877" x="114.304 124.46592 131.93793 137.1743 143.90508 155.11905 161.65854 166.89492 170.63689 181.68349 191.40306 201.12264 211.29651 216.30574 226.59918 231.08238 237.81316 249.61293 253.3549 260.8269 268.2989 280.09867 283.84065 291.31263 295.4252 301.55824 307.53584 312.77223 318.90525 331.44627 336.94566 343.07868 349.80946 353.55143 360.2822 372.81126 378.11936 384.25239 390.98316 402.19715 408.33018 415.43159 420.66798 427.20747 432.44386 436.18583 442.9166 455.4576 461.9971 469.46913 482.0101 493.2241 499.35713 505.8966">AutomaticCOVID-19lunginfectedregionsegmentationandmea-</tspan><tspan y="-662.431" x="114.304 119.61211 127.08411 132.5835 138.7165 149.93048 156.06349 163.16489 172.88446 180.35646 185.66457 189.40654 196.87854 208.09252 217.81209 227.16106 231.64426 236.95236 242.92996 249.46945 256.94148 266.7328 270.47477 281.68876 288.22825 294.959 301.09205">surementusingCT-scansimages</tspan></text>
<text xml:space="preserve" transform="matrix(1 0 -0 1 0 841.89)" font-size="7.9701" font-family="CMR8"><tspan y="-643.004" x="114.304 120.297519 127.590167 133.93436 138.63672 142.3986 147.5712 154.1545 158.85686 161.20804 164.97789 167.56021 172.03144 174.38262 179.56319 184.26555 188.49767 194.65856 201.00275 205.23487 209.46698 211.81816 216.05028 220.75264 225.92523 232.0383 236.74066 240.73368 246.6156 250.37749 254.13938 257.47886 261.71098 269.0036 274.40733 277.70695 281.93907 286.64143 290.87355 294.1652 296.51637 299.81599 304.0481 308.51933 313.22169 318.39427 322.62638 327.32875 334.86048 341.20469 344.96659 348.7285 352.4904 357.19276 361.8951 364.24629 368.94865 375.53196 382.1073 386.33943 389.6789 393.01838 397.2505 404.77427 410.0664 414.29853 418.53065 423.233 427.46513">ByAdelOulefki,SosAgaian,ThaweesakTrongtirakulandAzzeddineKassahLaouar</tspan><tspan y="-628.55807" x="114.304 120.41707 124.8883 128.17995 131.4716 136.17397 139.51345 141.86463 146.09674 150.32886 156.44193 162.555 168.66806 171.01924 175.7216 179.48349 184.18585 186.53704 188.88822 193.59058 195.94176 202.9953 205.34648 210.04885 212.40003 217.10239 219.45357 223.68569 227.6787 232.14992 236.38204 241.0844 248.13794 251.89983 256.13197 260.36408 263.6637 266.95536 269.30653 273.06843 275.4196 279.1815 282.52098 286.75309 292.51548 300.2704 306.38346 310.61558 314.8477 319.0798 323.31193 327.54405 331.77616 336.00828 343.0618">(https://www.ncbi.nlm.nih.gov/pmc/articles/PMC7605758/)</tspan><tspan y="-614.11209" x="114.304 121.54882 128.01258 131.77446 136.47682 140.70894 144.00856 147.30022 154.35376 158.11565 162.5789 168.88326 173.11537 178.71836 184.83142 189.06354 196.11708 200.81945 205.5218 208.81346 212.57535 218.88767 223.59003 227.35192 229.7031 233.46498 238.16735 241.92923 245.69112 251.10282 257.21589 261.448 263.79917 266.15034 269.91224 274.14436 280.91896 285.15107 290.75404 295.4564 298.74806 302.98017 306.27183 310.03373 317.74879 320.80134 324.1408 326.49198 330.7241 335.42646 340.1288 345.5405 351.8847 355.6466 364.77238 370.40724 374.63935 377.93898 382.4102 387.82188 394.16609 396.51725 400.27915 403.5708 407.80293 411.10255 418.58647 424.58 426.93116 431.40238 439.11744 443.8198 447.11146 451.34358 454.63523 458.39714 466.11219 469.16474 472.5042 474.85539 479.0875 483.78987 488.49223 493.9039 500.2481 504.01">1DepartmentofComputerScience,CollegeofStatenIsland,NewYork,VictoryBlvdStatenIsland,New</tspan><tspan y="-599.6661" x="114.304 119.94683 124.17098 127.470607 134.77123 139.00334 143.23546 147.45961 151.69173 155.92385 161.10442 167.44861 172.15097">York10314,USA</tspan><tspan y="-585.2201" x="114.304 121.44521 126.259159 130.49127 134.25316 138.95552 141.3067 144.36722 151.73957 155.97168 161.47106 164.5236 169.22597 173.92833 178.63069 181.97017 185.26183 188.56145 190.91263 195.14475 200.40502 206.16739 210.86975 215.57212 219.334 223.56612 226.85778 229.20896 233.44107 241.04456 247.27718 251.97953 254.56981 258.80195 265.85548 270.0876 274.78996 279.02207 283.25419 285.60536 292.74656 299.09077 303.79313 306.1443 310.3764 314.1383 317.43794 320.7774 323.12858 326.1891 333.56144 337.79356 343.2929 348.69664 352.45854 355.9893 360.69166 365.394 369.62614 371.9773 376.2094 380.44154 387.82185 393.57627 398.27864 401.57826 408.71946 415.06367 419.29579 423.767 428.46937 432.70149 437.40385 442.68003 448.32289 452.555 456.0778 460.78016 463.13133 466.43095 473.57215 479.33454 484.0369 488.0299 492.27 496.5021 501.20448 505.43659">2FacultyofIndustrialEducationRajamangalaUniversityofTechnologyPhraNakhon,VachiraPhayaban</tspan><tspan y="-570.7751" x="114.304 120.76775 125.470119 128.80959 131.16077 137.27384 143.26735 147.49947 152.20183 156.43395 160.67403 164.90615 169.37737 174.54996 180.66303 185.36539 189.5975 191.94869 194.29987 198.53199 203.23435">DusitBangkok,Thailand</tspan></text>
<text xml:space="preserve" transform="matrix(1 0 -0 1 0 841.89)" font-size="11.9552" font-family="CMR12"><tspan y="-522.45608" x="114.304 123.07912 133.16931 137.72425 144.22788 154.90387 163.3562 172.14328 180.9184 185.13858 194.08107 197.97847 203.83652 215.17005 219.78475 226.28838 230.83136 236.03188 241.88993 248.39356 257.51539 264.019 269.2195 275.07759 278.32939 282.8843 294.86344 302.99299 308.85105 313.40599 319.26405 324.46455 329.01948 339.09773 344.29823 350.15629 356.6599 359.9117 371.89085 378.39448 384.25254 394.28297 399.48347 405.6643 411.52238 421.2778 424.5296 431.03324 441.70924 446.90974 452.7678 457.9683 462.52323 474.17958 480.6832 486.5293 491.08424 494.33604 499.53654 505.71739">AstheCOVID-19spread,healthworkerscouldnotexamineeverypatient</tspan><tspan y="-508.01005" x="114.304 120.80763 125.362567 131.22061 138.04703 143.24755 147.80248 151.05429 161.49118 167.34923 173.85286 184.61255 190.4706 196.97423 201.52916 207.3872 217.14266 223.0007 227.55564 230.80745 236.6655 247.42519 255.55474 261.41279 270.28355 274.83848 281.3421 290.79866 297.30229 302.50279 307.70329 318.46296 324.321 332.16365 336.71858 343.2222 352.67875 359.18238 365.04045 371.54408 376.099 385.61534 394.06767 400.5713 410.02784 419.78327 425.64134 428.89314 439.6528 445.83366 452.33729 456.8922 463.39585 466.64765 476.1042 479.356 490.11567 498.568 505.07164">properlyandautomationwastheneedofthehour.ThemainhurdleinThe</tspan><tspan y="-493.56404" x="114.304 118.91871 124.119228 129.97728 139.73273 144.93325 151.11409 155.66902 161.52707 166.082 169.33382 175.19187 185.35379 191.21184 198.45668 201.7085 206.90901 211.52371 214.77553 220.63358 227.1372 235.4102 238.66202 246.94696 251.56166 254.81348 264.5689 267.8207 271.06056 276.9186 285.1438 291.00187 295.5568 301.09208 307.27293 311.88764 317.08815 322.9462 326.198 335.0568 340.59208 346.45014 349.70195 356.20558 361.40608 369.67909 374.234 383.76234 388.31727 394.8209 403.6797 409.21498 415.07304 418.32484 424.82847 430.02897 438.30198 444.16004 451.4049 456.01963 461.8777 465.4523 473.66554 478.22047 481.47227 486.08699 490.7017 497.20533 502.40583 507.02055">segmentationoflesionsissimilargrayscalevaluestothevaluesofsofttissues,</tspan><tspan y="-479.118" x="114.304 118.524188 124.705028 129.25995 134.46047 140.9641 145.5788 148.83061 153.06276 163.54747 166.79929 173.30292 177.20032 183.692 189.55005 199.3055 205.16355 211.02159 216.2221 222.72574 227.92626 231.17807 235.41022 245.89493 251.75298 258.2566 269.0641 275.56773 280.12266 285.32316 289.93788 295.13838 301.642 306.8425 316.34687 322.20494 330.0834 334.63835 341.14198 350.64634 356.5044 361.05934 365.61427 368.86607 372.44068 378.29875 383.49925 388.05418 397.71397 406.1663 412.66993 422.1743 426.72923 431.92973 436.54444 441.74494 447.603 452.15794 457.02369 463.5273 468.7278 477.5866 483.44468 491.32316 495.87809 502.3817 505.6335">Intensityin-homogeneityandpresenceoftheartifact.Theresearcherofthis</tspan><tspan y="-464.672" x="114.304 120.80763 126.66568 133.4921 138.69261 146.12876 154.09091 158.64585 164.50389 171.3303 177.18836 181.80306 187.00357 196.38842 202.24646 211.6313 216.83182 223.33545 229.83908 235.69713 242.20076 247.40128 252.60179 262.35725 267.55775 273.7386 281.1747 290.93016 296.11869 300.6736 307.17726 313.37007 322.75489 328.61296 335.11659 344.48948 349.68998 355.54804 365.30348 371.8071 377.66517 382.2201 387.4206 396.80543 400.05723 407.49336 415.94569 419.19749 423.7524 433.13725 437.75196 442.3069 448.16496 452.71989 457.92039 461.81779 467.67585 471.25047 475.14787 479.7028 486.20643 491.40693 495.30433 501.16239 505.71733">paperProposedanenhancementmethodandcompareditwithstate-of-the-art</tspan><tspan y="-450.227" x="114.304 118.91871 124.119228 129.97728 139.73273 144.93325 151.11409 155.66902 161.52707 166.082 169.33382 175.19187 186.1787 190.73363 195.93415 200.81188 207.3155 213.81914 217.07096 223.25179 229.75542 234.95594 244.05384 249.91188 260.8987 265.45365 271.95729 281.65293 286.26765 292.1257 301.88114 311.56486 318.06849 323.92655 328.48149 334.33955 344.54927 353.0016 359.50523 369.20088 374.40138 380.905 387.40864 393.2667 399.77033 404.97084 410.15937 421.15815 430.91358 436.11408 440.669 447.17265 453.3535 464.34034 470.84397 475.3989 481.25697 488.08338 493.94145 498.55616 503.75666">segmentationtechniquesonthesamedata.Theenhancedmethodproposed</tspan><tspan y="-435.78099" x="114.304 120.48484 130.56308 135.11801 141.62165 150.71956 155.27449 160.475 165.0897 170.29022 176.14827 180.7032 185.58094 192.08457 197.28508">bytheresearcher</tspan><tspan y="-421.33497" x="114.304 118.91871 125.42234 130.95761 139.08716 144.28768 154.43764 160.94127 165.4962 171.35425 181.1097 184.36151 188.97621 192.22803 198.73166 208.23604 212.79097 217.99149 222.60619 229.10982 232.36164 236.91657 245.1776 251.35845 261.1856 270.94105 276.14155 281.9996 292.14958 298.00764 305.22859 311.7322 316.34693 319.59873 326.10237 335.60676 345.36219 351.22026 355.83497 362.0158 365.2676 371.77125 381.27565 391.03108 396.23158 400.7865 405.34144 408.59324 417.44007 423.29814 429.80177 439.95173 449.38438 455.888 459.1398 463.69474 466.94654 470.19834 475.39884 481.2569 486.4574 493.35554 496.60734 506.36277">showedpromisingresultsbymeanofusingmaskingmetricandmultilevelim-</tspan><tspan y="-406.88896" x="114.304 120.16205 126.020099 135.11801 139.67295 146.17658 150.7315 155.93202 160.54673 167.05036 172.9084 176.16022 182.66385 185.91567 192.4193 202.18669 205.76129 211.60739 220.07167 223.32349 233.07894 238.93698 244.79503 253.89295 258.50767 263.70817 269.56623 279.32167 284.52217 290.703 295.25794 301.116 305.67094 308.92274 314.7808 325.18183 331.36268 341.44093 347.29899 353.8026 358.35755 361.60935 371.36479 374.61659 379.81709 383.06889 389.5725 399.32798 408.42588 414.28395 420.78758 427.2912 435.7555 440.956 447.12489 451.6798 456.23475 462.0928 468.27366 473.4861">agethresholdingforimagesegmentationbyoptimizingKapurentropy.</tspan></text>
<text xml:space="preserve" transform="matrix(1 0 -0 1 0 841.89)" font-size="11.9552" font-family="CMR12"><tspan y="-353.58897" x="93.494 99.35205 105.2101">10.</tspan></text>
<text xml:space="preserve" transform="matrix(1 0 -0 1 0 841.89)" font-size="11.9552" font-family="CMBX12" font-weight="bold"><tspan y="-353.58897" x="114.304 127.07215 133.20517 139.74466 146.84606 150.58803 157.68943 162.17263 169.64463 177.11663 184.97119 191.1042 196.60359 203.70499 207.44696 212.75507 218.88808 233.16259 243.50383 250.97583 254.7178 261.4366 267.56965 273.06904 278.37715 284.91664 295.46113 303.54286 309.67588 314.98399 318.72596 325.45674 339.73124 347.20326 353.33628 360.06706 371.28105 377.41407 384.51545 389.75184 396.29133 401.5277 405.26969 412.00047 426.275 435.99458 439.73655 444.97294 459.24748 469.2779 475.41093 482.1417 485.88368 492.61445 500.08644 506.62593">Weakly-SupervisedUniversalLesionSegmentationwithRegional</tspan><tspan y="-339.14295" x="114.304 122.38572 128.51874 135.24953 141.38254 149.60771 157.07971 163.21273 172.9323 181.014 187.74478 193.05289">LevelSetLoss</tspan></text>
<text xml:space="preserve" transform="matrix(1 0 -0 1 0 841.89)" font-size="7.9701" font-family="CMR8"><tspan y="-319.71595" x="114.304 120.297519 127.590167 133.23299 137.4651 142.16747 146.86983 151.10195 158.15547 163.5592 167.79132 172.49369 176.7258 181.89839 186.25006 188.60124 193.3036 197.06549 201.76786 205.52974 210.2321 217.28563 223.3987 227.63082 232.81139 237.0435 243.15657 246.91846 249.26964">ByYoubaoTang,JinzhengCaiatel.</tspan><tspan y="-305.26994" x="114.304 120.41707 124.8883 128.17995 131.4716 136.17397 139.51345 141.86463 146.09674 150.32886 154.56098 157.8606 162.33182 164.683 169.15422 171.5054 175.73752 179.03714 183.26129 187.49341 192.43488 197.13724 199.72753 203.95964 208.19176 212.42388 216.65599 220.8881 223.23929 227.4714 231.70352 235.93564 240.16776 244.39987 246.75106 251.68456 256.3869 261.79859">(https://arxiv.org/pdf/2105.01218.pdf)</tspan><tspan y="-290.8239" x="114.304 121.357547 126.41856 132.76276 136.04645 141.92041 144.97296 149.67533 153.43721 155.79636 160.96895 166.96247 171.19458 174.48624 179.1886 182.95049 186.28997 190.99233 195.22444 200.39704 208.15195 214.61569 219.78829 226.13248 230.83484">1PAIIInc.,Bathesda,MD,USA</tspan><tspan y="-276.3789" x="114.304 121.357547 127.11993 129.4711 134.17346 141.22699 147.5712 155.10295 160.50669 164.26857 167.79135 172.49372 177.19608 181.42819 183.77938 188.01149 192.2436 196.01346 201.18605 205.88842 210.59078 214.35266 219.05503 222.81691 227.51927 231.28116 235.98352 241.15612 246.91849 252.91997">2PingAnTechnology,Shenzhen,PRC</tspan><tspan y="-261.9329" x="114.304 121.357547 127.35106 131.11295 133.46413 136.05442 138.4056 143.10796 150.16149 156.50568 161.20804 163.55922 166.85088 170.61277 178.14452 182.95847 187.19058 194.24413 196.5953 198.94649 206.23912 212.58332 216.81543 220.1549 224.85727 227.20845 230.5001 234.73223 237.0834 242.256 248.24951 252.01937 254.37055 256.96083 259.31199 264.01435 268.24647 273.41905 279.18144 285.17494">3BeijingUnitedFamilyHospital,Beijing,PRC</tspan><tspan y="-247.4869" x="114.304 121.357547 127.47061 132.17298 136.40509 141.10746 148.16098 154.80805 159.5104 164.21277 171.2663 179.02121 182.7831 189.83664 194.06876 197.36838 199.71956 203.95168 209.13225 215.47644 219.70856 223.04804 227.7504 230.10158 233.39324 237.62535 239.97653 245.14913 250.44127 252.79245 257.4948 261.72694 265.95906 270.6614 275.83399 281.2457 285.4778 287.82899 293.70295 297.93507 302.63743 307.81 313.81147 320.39479">4ChangGungMemorialHospital,Linkou,Taiwan,ROC</tspan></text>
<text xml:space="preserve" transform="matrix(1 0 -0 1 0 841.89)" font-size="11.9552" font-family="CMR12"><tspan y="-199.1679" x="114.304 123.07912 128.93717 136.82759 140.40219 146.90583 151.52053 159.42292 162.67473 169.17836 175.68199 181.54004 189.49024 192.74205 197.94257 202.55727 205.80908 211.66713 221.50626 228.00989 233.2104 237.76534 242.96585 248.16637 252.7213 255.97312 261.83119 271.67033 277.52839 284.032 293.8831 298.4978 303.6983 309.55638 319.3118 324.5123 330.68119 335.2361 341.09419 345.6491 348.9009 354.75898 364.5981 367.8499 375.81208 385.00566 389.88337 396.387 402.24507 405.49687 408.74867 413.94917 420.4528 426.31086 429.56266 436.06629 445.25987 449.8148 455.67286 460.28758 469.80393 476.30757 482.8112 490.71357 495.32829 500.52879 506.38685">Notjustlungslesiondetectionandsegmentationisachallengingtaskbutseg-</tspan><tspan y="-184.7219" x="114.304 124.05945 129.25997 135.44081 139.99575 143.24756 149.75119 159.14798 165.00603 171.18688 180.9184 184.17021 189.37073 193.98543 197.23725 203.09529 213.13767 216.38948 224.55487 233.96361 240.46724 246.32529 250.88022 260.92259 265.4775 271.33558 275.9503 285.68183 292.18547 296.80018 300.05198 306.5556 315.96437 324.4167 336.40776 341.02247 346.22297 352.08103 358.58467 363.19938 371.5441 379.99644 386.4881 391.6886 396.3033 405.0545 409.60945 414.80995 419.42466 424.62516 430.48323 435.03816 439.91587 446.4195 451.62 456.17494 464.34034 470.84397 475.38694 481.245 488.08338 493.94145 498.55616 503.75666">mentinganylesionisahardtaskusingCTscans.Theseresearchersproposed</tspan><tspan y="-170.2759" x="114.304 124.10726 128.6622 133.86272 138.74045 145.24408 151.74771 154.99953 161.18036 167.68399 176.82973 181.38466 191.18793 195.80263 201.00315 206.86119 216.61664 221.81716 227.998 236.49816 239.74997 244.95049 249.56519 252.817 258.67506 265.16673 273.73863 277.31324 281.86817 287.72624 301.42689 307.28495 313.45384 319.63468 328.087 334.59065 339.79115 344.34608 353.4918 356.7436 367.19245 371.74739 378.251 387.39674 395.84907 402.3527 408.21076 411.46257 420.60829 427.4347 433.6275 440.13114 450.2572 456.11528 464.6752 471.17884 477.68247 480.93428 486.78038 491.98088 496.5358 501.1505 507.00859">atechniquetosegmentlesionsfromanywhereinthewholebodyasuniversal</tspan><tspan y="-155.8309" x="114.304 117.55582 122.75633 127.37104 130.62285 136.4809 146.88193 151.49663 156.69715 162.55519 172.31064 177.51116 183.692 188.24694 194.10498 198.65991 201.91173 207.76978 214.2734 218.82834 227.60346 234.92005 241.42368 249.876 253.4506 259.30867 267.77296 276.22529 288.575 293.18974 298.39024 304.2483 310.75193 315.36665">lesionsegmentation(ULS)forCTscans.</tspan><tspan y="-141.3849" x="114.304 125.02782 130.88587 137.06671 143.57035 149.42839 152.6802 155.93202 166.05808 171.91613 178.41976 184.92339 190.78144 195.33637 201.19441 205.74935 209.00116 215.50479 225.32 229.93471 236.43834 241.30411 251.76491 257.94575 264.44938 270.30744 279.45317 285.9568 291.81486 296.36979 306.18504 310.73997 315.94047 322.1213 328.62495 331.87675 336.43168 341.63218 351.37565 356.57615 362.757 367.31193 375.88383 384.01338 389.87144 398.43138 404.935 410.1355 415.99357 421.19407 429.6942 434.8947 440.75279 445.3675 450.57997 459.17573 465.67936 475.4946 483.62416 488.82466 494.6827 500.86357 504.11537">Manuallyannotatingsuchhugedatarequirementswasnevereasy.Soweakly</tspan><tspan y="-126.9389" x="114.304 118.91871 125.42234 132.24875 137.44927 142.0042 148.18503 151.43685 156.05155 161.25206 173.09967 182.85512 189.03595 195.53958 200.7401 209.32393 217.45348 223.31153 233.25824 239.76187 244.37657 249.57709 261.42469 267.9283 273.1288 277.68376 288.21629 294.39714 305.92195 317.11204 322.31254 328.1706 337.60325 344.10688 347.35868 353.8623 359.72038 364.2753 367.5271 373.38517 385.22084 391.0789 399.99748 408.77259 412.02439 417.88246 424.3741 428.2715 436.8912 442.0917 446.70643 452.56449 455.81629 462.31993 466.87486 470.12666 475.9847 487.8323 496.60743 501.80793 506.36286">supervisedmodelwasusedherebyacombinationofHigh-ResolutionNet-</tspan><tspan y="-112.492908" x="114.304 122.43353 128.29158 132.84651 139.02735 143.58228 152.35739 160.9771 169.75222 174.95273 179.50766 186.96772 192.82576 199.32939 208.75009 217.3698 222.57032 228.42836 231.68018 237.53823 244.04186 249.8999 256.05683 263.3734 268.5739 274.43199 279.63249 285.7894 290.4041 295.6046 300.15956 304.71449 313.33418 320.65077 327.1544 334.6264 343.07875 349.58238 352.83418 357.69993 367.12065 371.67558 376.87608 381.49079 387.99443 391.24623 395.80116 401.00166 410.4104 413.6622 423.08293 429.90934 435.10984 439.72456 447.19657 454.02299 459.22349 463.7784 467.35304 473.2111 477.76603 487.52146 493.37953 499.88316 505.08366">work(HRNet)andRegionalLevelset(RLS)whichresultedinbestperformance</tspan><tspan y="-98.046909" x="114.304 120.16205 131.07715 135.63208 142.13571 151.7477 158.25133 164.75496 171.25859 174.5104 177.76222 182.96274 186.21456 196.80686 200.05867 205.91672 210.47165 216.3297 221.53022 225.42761 230.04232 235.24283 241.10088 244.35269 253.96468 262.90718 268.10768 273.30818 279.8118 287.1284 292.3289 296.9436 300.1954 306.05348 316.96858 323.4722 329.33027 333.8852 339.74327 344.35798 349.55848 354.1134 364.09599 372.8711 379.37474 390.28984 395.49034 401.3484 407.85203 413.05253 416.30433 422.80796 429.31159 434.5121 445.4272 449.98213 456.48576 459.73756 468.76374 476.89329 482.75135 487.30628 497.8986 504.07945">onthepubliclylarge-scaleDeepLesiondataset.Andconcludedthisworkby</tspan><tspan y="-83.601909" x="114.304 122.9237 130.24028 140.64131 146.49936 155.0234 158.27523 166.72756 171.92807 178.4317 184.93534 190.79338 197.29701 202.49753 207.69805 218.09908 224.92549 230.126 234.68094 238.25554 244.11359 248.66852 258.42396 264.282 270.78565 275.98616 285.096 289.71073 292.96253 298.8206 305.32423 308.57603 311.82188 315.07966 320.28016 326.1382 332.3071 336.86204 340.11384 345.3263">RLSasitenhancedperformancesignificantly.</tspan></text>
<text xml:space="preserve" transform="matrix(1 0 -0 1 0 841.89)" font-size="11.9552" font-family="CMR12"><tspan y="-40.977907" x="292.923 299.10386">vi</tspan></text>
</g>
</svg>
