<?xml version="1.0" encoding="UTF-8" standalone="no"?>
<!DOCTYPE svg PUBLIC "-//W3C//DTD SVG 1.1//EN" "http://www.w3.org/Graphics/SVG/1.1/DTD/svg11.dtd">
<svg xmlns="http://www.w3.org/2000/svg" xmlns:xlink="http://www.w3.org/1999/xlink" version="1.1" width="595.276pt" height="841.89pt" viewBox="0 0 595.276 841.89">
<g enable-background="new">
<text xml:space="preserve" transform="matrix(1 0 -0 1 0 841.89)" font-size="17.2154" font-family="CMBX12" font-weight="bold"><tspan y="-759.068" x="85.039 94.73127 100.11969 129.17929 140.81691 146.20534 153.74568 162.57718 170.49626 179.91309 187.45343 198.21306 206.13214 221.41942 235.86315 244.69464 254.9206 260.30903 269.14054">0.2LiteratureReview</tspan></text>
<text xml:space="preserve" transform="matrix(1 0 -0 1 0 841.89)" font-size="11.9552" font-family="CMR12"><tspan y="-732.784" x="99.347 105.20505">1.</tspan></text>
<text xml:space="preserve" transform="matrix(1 0 -0 1 0 841.89)" font-size="11.9552" font-family="CMBX12" font-weight="bold"><tspan y="-732.784" x="114.304 122.38572 129.85773 137.32973 147.0493 155.13101 161.26403 166.57213 170.3141 177.04488 187.50568 194.97768 201.11069 207.84146 219.05544 225.18845 232.28984 237.52622 244.0657 249.30208 253.04405 259.77485 270.23564 280.57688 285.88499 289.62696 297.09895 306.8185 317.3869 323.9264 331.39839 336.70649 342.0146 345.75657 352.29606 362.75688 371.2092 374.95118 378.69316 383.92955 390.06257 398.55076 405.09025 412.56227 423.02305 433.32844 437.0704 442.3785 448.3561 453.8555 459.98854 465.2249 474.34675 487.1149 493.28379 500.01457 506.14759 509.88957 516.0226">LungLesionSegmentationUsingGaussianFilterandDiscreteWavelet</tspan><tspan y="-718.338" x="114.304 122.52918 128.02858 134.56807 142.04007 147.34818 151.46077 158.19155 163.69094">Transform</tspan></text>
<text xml:space="preserve" transform="matrix(1 0 -0 1 0 841.89)" font-size="7.9701" font-family="CMR8"><tspan y="-698.911" x="114.304 120.297519 127.590167 134.1655 138.39762 145.45116 147.80234 152.97493 159.43868 161.78986 168.8434 171.20255 173.55373 175.9049 178.25609 182.01798 185.3176 190.49019 196.83438 199.18556 204.35816 210.70236 214.46425 217.80373 221.10335 226.27594 230.50806 235.21042 242.74217 248.37703 252.60915 257.3115 261.0734 268.36604 274.94136 277.2925 280.59214 283.9316 288.16374 293.3363 299.0987 303.33879 307.10069">ByKamilDimililer,AliHesriandYoneyKirsalEver</tspan><tspan y="-684.465" x="114.304 120.41707 124.64919 128.88132 131.2325 135.46462 139.69673 143.92885 148.16097 152.39308 154.74427 158.03592 165.08946 168.85135 173.08347 177.78583 180.37612 184.60823 188.84035 193.07247 197.30458 201.5367 205.76882 210.00093 214.23305 218.46517 222.69728 226.92144 233.98294">(10.1051/itmconf/20171101018)</tspan><tspan y="-670.01907" x="114.304 121.357547 127.11993 129.4711 133.23299 136.99488 140.28653 143.58615 145.93733 152.52063 156.75275 161.45511 168.98686 174.74924 177.10042 180.8623 184.62419 187.91585 191.21547 195.44759 200.14995 202.50113 209.08443 214.8468 219.54917 223.78128 226.13246 230.83483 234.59671 238.3586 241.65822 244.0094 248.71176 255.76529 262.22904 265.99095 270.6933 274.9254 278.22505 281.5167 288.57023 292.33213 296.79539 300.08705 305.26759 311.6118 315.3737 319.6058 325.72685 331.48924 335.72135 339.06083 345.1739 351.5181 356.22047 358.57164 362.80375 366.56565 369.86528 373.20475 375.56388 378.61643 382.3783 387.55885 393.90306 398.13517 401.43479 404.72645 412.2502 418.36329 422.8345 427.53688 430.8365 435.53886 438.87834 444.0509 451.80583 455.56773 458.86735 462.20683 464.55799 472.08177 476.31388 483.3674 488.7791 493.48149 496.7811 501.0132 504.77513">1ElectricandElectronicEngineeringDepartment,NearEastUniversity,NorthCyprus,Mersin10Turkey</tspan><tspan y="-655.57308" x="114.304 121.357547 126.059909 130.29203 132.88231 135.94283 141.81679 146.0489 149.34853 155.93183 161.69422 166.39658 170.6287 172.97988 177.68224 181.44412 185.20601 188.50563 190.85681 195.55918 202.6127 209.07645 212.83834 217.5407 221.77281 225.07244 228.36409 235.41764 239.17952 243.65074 246.9424 252.11499 258.4592 262.2211 266.45323 272.57426 278.33665 282.56877 285.90824 292.0213 298.3655 303.06788 305.41905 309.65913 313.42103 316.72065 320.06013 322.4113 325.46385 329.2337 334.40629 340.7505 344.9826 348.28224 351.57389 359.09767 365.21073 369.68196 374.3843 377.68394 382.3863 385.72578 390.89836 398.65327 402.41517 405.71479 409.05427 411.40544 418.9292 423.16133 430.2228 435.62654 440.3289 443.6285 447.86064 451.62254">2SoftwareEngineeringDepartment,NearEastUniversity,NorthCyprus,Mersin10Turkey</tspan></text>
<text xml:space="preserve" transform="matrix(1 0 -0 1 0 841.89)" font-size="11.9552" font-family="CMR12"><tspan y="-626.68209" x="114.304 121.62058 126.8211 131.4358 134.68762 140.54567 147.0493 157.24709 160.4989 167.00254 171.61724 174.86905 181.37268 192.15628 196.71121 203.21485 214.01039 217.25026 223.75389 230.25753 236.11557 246.3253 252.18335 256.73829 267.52186 272.72236 278.5804 281.8322 285.084 290.28453 302.37123 313.81236 319.6704 324.22535 329.42585 335.2839 345.4219 350.6224 356.48048 361.0354 364.2872 376.05113 380.66584 386.84669 396.6021 403.10575 407.66069 413.51875 428.85725 432.43186 438.28993 448.43989 454.9435 460.144 464.69895 469.89945 475.08799 479.6429 482.8947 488.75279 500.85145 506.7095">Lesionsinsidethelungsarecalledagreatearlysymptomfordetectionof</tspan><tspan y="-612.2361" x="114.304 121.62058 128.1242 134.62784 145.73423 150.93474 156.79279 163.29642 168.49694 173.69745 178.25238 190.76947 198.08606 204.58969 211.09333 222.1997 227.40023 233.25827 239.7619 244.96242 250.16294 259.97816 263.22996 273.093 284.21134 290.0694 294.62434 300.1596 308.61195 311.86375 318.36738 329.47377 334.0287 340.53233 350.28776 356.1458 362.64945 372.4527 377.00764 383.51127 389.36933 399.18455 405.0426 409.59754 420.04637 425.24687 430.44737 433.69917 436.95097 446.82597 452.02647 457.56175 463.40785 468.60835 473.16328 476.41508 482.9187 494.03706 498.59199 505.0956">Lungcancer.Lungcancerisagrowingtumourthatarecellscoveringthe</tspan><tspan y="-597.7901" x="114.304 120.16205 123.413867 127.968799 136.09835 141.6336 147.80249 156.32654 162.18459 169.65659 174.21152 180.71515 189.82501 199.58046 206.08409 209.65869 215.51674 223.96907 228.524 233.72452 238.33922 244.84285 248.09467 252.6496 258.50767 263.0626 268.92066 273.4756 283.55384 288.16856 294.3494 298.9641 303.51905 308.71955 318.47499">airwaysofthemajorrespiratorysystem.</tspan><tspan y="-583.3441" x="114.304 123.07912 128.27964 132.83457 142.84107 147.396 153.89963 159.0882 165.26903 168.52085 174.37889 184.38539 190.88903 195.50373 200.70424 212.0019 220.45424 233.71256 238.32726 243.52777 249.38582 255.88945 265.2982 271.15626 277.65989 288.9695 294.82759 301.3312 307.83485 311.08665 314.33845 319.53895 330.8366 334.0884 343.84385 349.7019 355.55998 365.56648 372.0701 376.62504 382.80589 388.00639 393.20689 397.8216 402.4363 405.6881 412.19175 422.84385 429.34748 432.59928 436.01249 439.4257 444.6262 449.18113 454.38163 460.56248 469.9234 475.78147 482.2851 488.77677 492.02857 495.28038 500.48088 506.33894">Herethey&#x2019;veusedCTscansandappliedimageprocessingdifferentapplica-</tspan><tspan y="-568.89816" x="114.304 118.85893 122.11075 127.968799 134.47243 143.41492 149.27297 155.7766 166.61997 169.87178 176.04067 181.89871 187.09923 191.71393 196.26886 199.52068 205.37873 211.23677 215.7917 220.99222 231.82364 236.37857 242.8822 252.42246 257.62297 261.03617 264.44938 269.64988 274.85038 279.4053 282.6571 288.5032 293.7037 300.20735 305.40785 310.02256 318.97703 324.83509 332.7375 339.24113 342.49293 345.90614 349.31935 354.51985 359.07478 364.27528 370.45613 379.33885 383.57099 389.75184 396.57826 401.77876 410.72126 416.5793 424.49369 430.9973 434.2491 438.86384 444.06434 448.61927 453.81977 458.3747 467.90299 476.03254 481.55586 487.4139 492.6144 495.8662 501.0667 505.62165">tionsandinvestigatedtheeffectivenessofdifferenttypesofdiscretewavelets</tspan><tspan y="-554.45217" x="114.304 118.85893 128.61438 134.47243 140.97606 145.53099 151.38904 154.64086 165.05384 170.91188 176.1124 181.31291 187.81655 192.37148 198.21758 202.7725 211.88237 216.4373 221.63782 226.25252 232.75615 236.00797 240.5629 245.1776">toobtainaccurateresults.</tspan><tspan y="-540.00717" x="114.304 123.07912 128.93717 134.79521 143.27146 154.31806 159.85332 165.6994 170.89992 174.15174 179.35225 183.90718 191.0803 200.0228 206.52643 216.30579 222.16384 228.66747 239.08045 247.3654 250.61722 254.51462 260.37269 264.9276 269.48255 275.98619 281.84425 287.7023 293.56037 300.064 305.92207 313.09516 321.21275 326.74803 332.60609 337.80659 341.05839 346.25889 354.72319 360.58125 365.13618 374.25798 381.08439 386.28489 389.53669 396.0403 405.80775 412.31138 416.9261 422.1266 432.5515 438.40959 441.66139 447.51945 454.02308 463.7905 472.24284 475.49464 480.04957 490.4745 501.1983 506.3988">HaarWavelet,Db7andBi-orthogonalwaveletarebeingusedalongwithMe-</tspan><tspan y="-525.56118" x="114.304 120.80763 124.05945 129.9175 140.31853 146.17658 152.6802 163.09319 172.27478 178.13283 184.63646 189.25116 193.86586 197.11768 202.97573 213.37676 222.47467 227.67519 232.23012 238.73375 243.93427 247.18608 251.80078">dianandGaussianKernels.</tspan></text>
<text xml:space="preserve" transform="matrix(1 0 -0 1 0 841.89)" font-size="11.9552" font-family="CMR12"><tspan y="-472.26118" x="99.347 105.20505">2.</tspan></text>
<text xml:space="preserve" transform="matrix(1 0 -0 1 0 841.89)" font-size="11.9552" font-family="CMBX12" font-weight="bold"><tspan y="-472.26118" x="114.304 124.023578 133.75511 143.91704 148.92627 159.23166 163.71486 170.44564 180.58364 188.66535 194.79836 200.10646 203.84844 210.57921 221.45844 228.93044 235.06345 241.79422 253.0082 259.1412 266.23066 271.46705 278.00654 283.24293 286.9849 293.71568 304.5949 314.93617 320.24427 323.98625 331.45826 341.59626 349.67799 357.14997 364.62196 374.75996 384.47953 397.23573 404.7077 410.6853 417.2248 428.104 433.11323 444.3272 450.8667 457.59748 463.7305 469.0386 478.22019 487.93977 494.67054 505.88453">COVID-19LesionSegmentationUsingLungCTScanImages:Com-</tspan><tspan y="-457.81517" x="114.304 121.776 128.31549 133.81488 140.35437 145.59075 149.33272 156.0635 166.67972 174.15172 179.38809 186.86009 194.33209 205.91669 215.48085 222.02034 227.32845 233.46146 245.41666 252.14743 264.10267 274.2646 280.2422 285.47859 289.22056 295.95133 306.56758 316.28715 323.0179 330.10737 335.34376 342.07453 349.5465 359.5291 372.2853 379.39866 386.87068 393.0037 396.74568">parativeStudyBasedonActiveContourModels</tspan></text>
<text xml:space="preserve" transform="matrix(1 0 -0 1 0 841.89)" font-size="7.9701" font-family="CMR8"><tspan y="-438.38816" x="114.304 120.297519 127.590167 133.23299 137.4651 142.16747 146.86983 150.63172 156.7926 163.13681 167.60803 172.3104 176.54251 179.84214 182.19332 187.3659 193.71012 197.94223 202.64459 206.87671 211.57907 216.75167 223.09586 227.32798 230.66745 234.00693 237.76882 242.47118 247.64377 252.34613 256.57826 263.63179 267.63276 271.86488 278.9184 285.2626 287.61378 290.43519 298.1901 302.4222 306.65434 311.3567 315.1186 318.8805 326.41224 330.64436 335.3467 342.87049 347.57286 352.2752 355.6147 363.13847 370.89338 373.24455 378.41716 383.1195 387.35163 392.054 396.2861 398.63728 402.39918">ByYounesAkbari,HanadiHassen,SomayaAl-MaadeedandSusuM.Zughaier</tspan><tspan y="-423.94215" x="114.304 120.41707 124.8883 128.17995 131.4716 136.17397 139.51345 141.86463 146.09674 150.32886 155.03122 159.26334 161.61452 163.9657 168.19782 171.49744 175.72956 179.96167 184.18582 188.41794 190.76912 195.00124 199.23336 203.46547 207.69759 211.9297 216.16182 220.86418 225.56655 229.79866 234.03078 238.2629 242.49501 246.72713 250.95925 255.19136 262.2449">(https://doi.org/10.3390/app11178039)</tspan><tspan y="-409.49613" x="114.304 121.357547 127.8213 131.58319 136.28556 140.51767 143.81729 147.10895 154.16249 157.92438 162.3956 168.50867 172.74079 178.15248 184.26555 188.49767 195.55121 200.25357 204.95594 208.24759 212.00948 218.13051 222.83287 226.59476 228.94594 232.70783 237.41019 241.17208 247.75537 251.98749 256.68986 264.21363 269.976 274.67839 278.9105 281.26167 285.96403 289.72593 293.48783 296.78746 299.1386 303.84098 308.0731 313.25364 319.83695 324.06907 327.36073 331.59284 337.71388 344.05809 348.76045 351.1116 355.34373 359.10563 362.40525 365.74473 368.0959 371.1564 374.91828 380.09086 386.5546 390.7867 395.48908 402.5426 406.77473 411.00685 415.23896 419.47108 423.7032 427.9353 433.10789 439.6912 443.9233 447.21498 451.44709">1DepartmentofComputerScienceandEngineering,QatarUniversity,Doha122104,Qatar</tspan><tspan y="-395.0501" x="114.304 121.357547 127.47061 131.70273 134.05391 136.40509 140.16698 144.3991 150.98239 155.21451 160.6262 168.38112 172.15097 176.85334 179.20452 182.9664 185.31758 190.01995 193.78183 198.95442 205.53772 214.70334 221.04755 224.80944 229.04155 231.39273 234.68439 239.38675 244.55934 251.14264 255.37476 258.6664 262.89854 269.01957 275.36378 280.06614 282.4173 286.65739 290.41929 293.7189 297.05839 299.40956 302.4621 306.23197 311.40455 317.8683 322.1004 326.80278 333.8563 338.0884 342.32054 346.55265 350.78477 355.01689 359.249 364.42158 371.00489 375.237 378.52867 382.76078">2CollegeofMedicine,QUHealth,QatarUniversity,Doha122104,Qatar</tspan></text>
<text xml:space="preserve" transform="matrix(1 0 -0 1 0 841.89)" font-size="11.9552" font-family="CMR12"><tspan y="-366.15913" x="114.304 122.26617 128.76979 133.9703 140.47394 150.22939 156.08744 162.59107 165.84288 176.41127 183.23769 188.4382 191.69002 198.19365 208.76204 219.31848 222.5703 229.07393 235.57756 246.14595 249.39777 255.9014 259.476 264.6765 269.877 274.43196 277.68376 283.5418 294.7558 298.0076 307.3207 313.82435 317.07615 322.9342 329.43785 332.68965 343.58085 348.13578 354.6394 359.19435 364.39485 370.2529 374.80784 380.00834 386.51197 389.76377 396.2674 402.12547 412.9927 421.44505 430.23213 439.00724 443.22743 452.16993 456.06733 461.92539 472.4938 477.6943 483.55238 490.056 494.67073 497.92253 504.42616">Pneumoniabeingalunginfectionishighlythreatening.COVID-19causing</tspan><tspan y="-351.7131" x="114.304 120.80763 127.311267 132.51178 139.01541 148.77086 154.6289 161.13254 164.38436 173.15947 176.41129 183.94306 190.76947 195.96999 199.2218 205.72544 214.50055 219.11525 224.31577 230.17382 239.92926 245.12978 251.31063 255.86556 261.06608 270.47483 276.97846 282.17897 286.7339 294.85148 301.3551 305.96983 309.22163 315.72526 324.5004 332.95274 344.32215 348.93687 354.13737 359.99543 366.49906 374.03086 378.5858 387.36094 390.60679 393.86457 400.3682 409.7889 416.29255 421.82783 433.19725 438.39775 441.81095 445.22416 450.42466 455.62516 460.18009 463.4319 469.27799 477.39558 486.1707 491.3712 495.92613 499.17793 505.03599">pneumoniaisbeingsegmentedhereusingCTscanstofindhoweffectiveActive</tspan><tspan y="-337.2671" x="114.304 122.756328 128.61438 134.79523 139.35016 145.2082 151.71184 159.4588 170.18262 176.36345 182.86708 188.0676 191.31941 199.12615 203.68108 212.1334 220.58574 231.30956 239.05652 244.91457 249.4695 254.67002 262.8832 271.33555 277.83918 281.09098 288.89775 293.45268 298.65318 303.26789 308.46839 314.32646 318.88139 323.7591 333.45478 339.9584 344.51335 350.0486 356.22947 359.48127 365.9849 371.1854 378.99217 383.5471 390.05073 398.44328 404.9469 410.80497 415.41969 418.67149 426.47825 432.3363 442.03199 450.4843 456.98796 460.23976 465.1055 474.8131 478.38774 484.89137 489.43434 493.98927 500.4929 505.6934">ContourModels(ACM)are.Thisresearchprovidesthebasisonwhichfurther</tspan><tspan y="-322.82109" x="114.304 122.756328 131.20865 145.82987 150.3848 155.58531 158.83713 164.69518 169.2501 174.45063 184.85166 192.16825 198.67188 205.1755 214.9429 221.44654 226.64705 232.5051 242.26055 247.46106 253.62995 258.18489 264.04295 268.59788 271.84968 277.70774 288.12074 293.32124 299.1793 309.58033 316.40675 325.5166 332.02024 337.86634 344.36997 353.47984 356.73164 367.13267 371.6876 378.19123 387.28913 395.74147 404.52854 413.30366 417.52384 426.4663 430.3637 436.22178 445.9892 452.49284 458.3509 468.10633 473.95243 477.20423 483.70787">ACMrelatedLungSegmentationcanbedoneintheCOVID-19domain.</tspan><tspan y="-308.37507" x="114.304 122.756328 129.25995 134.46047 140.6413 143.89311 149.75116 160.6304 165.2451 171.74874 177.27204 185.72437 197.90673 204.41036 209.94562 224.07668 227.32849 233.83213 237.08394 241.63887 244.89069 250.74874 254.00055 257.25236 269.1119 274.3124 280.17048 286.35133 290.90626 296.7643 303.25599 313.48963 318.04457 323.24507 327.85978 334.3634 337.6152 342.17015 352.46357 358.32164 364.82527 377.0076 380.2594 390.01484 396.51847 401.0734 406.60868 412.46675 417.66725 427.42268 432.62318 438.79206 443.347 453.6404 456.8922 469.07456 473.6295 478.83 483.4447 489.94834 493.20014 503.43379 506.68559">They&#x2019;veshownhowinitiallycontourresultsandimprovementsinresultif</tspan><tspan y="-293.92906" x="114.304 118.85893 128.04053 133.89858 139.09909 146.2483 154.70064 158.59804 167.37316 174.53432 185.25814 193.6985 202.15084 209.312 216.62859 221.24329 227.10134 232.30185 242.0573 249.20652 255.87752 260.43244 266.9241 272.78218 277.98268 287.7381 296.2024 306.9262 313.10707 319.6107 324.8112 328.063 336.5751 342.43318 349.91716 358.69227 363.89277 368.4477 371.6995 377.5456 386.65547 395.1078 400.96586 407.13475 411.68968 417.54774 424.05137 432.51567 438.37373 442.92866 452.02656 458.53019 463.1449 468.3454 474.84904">(Gac,C-V,MAC,Lsacm,Frbacm)ModelsofActiveContourareused.</tspan></text>
<text xml:space="preserve" transform="matrix(1 0 -0 1 0 841.89)" font-size="11.9552" font-family="CMR12"><tspan y="-240.62905" x="99.347 105.20505">3.</tspan></text>
<text xml:space="preserve" transform="matrix(1 0 -0 1 0 841.89)" font-size="11.9552" font-family="CMBX12" font-weight="bold"><tspan y="-240.62905" x="114.304 124.60938 132.08139 138.62088 142.36286 146.84606 154.31806 159.81745 166.35694 173.82894 179.43593 192.32364 198.30124 205.03202 215.87538 223.34738 227.08936 234.56136 241.10085 246.33722 250.0792 256.80998 269.6977 277.16969 283.3027 288.1685 297.51747 304.24824 309.74763 322.2647 327.5011 337.8065 347.52607 358.04664 363.28303 372.4407 380.67784 387.02604 396.375 402.9145 408.41389 415.88587 426.60969 433.14918 439.12678 445.10438 452.57637 458.07575 464.61524 469.85163 481.41233 488.88435 492.6263 499.1658 505.89659">Dual-branchcombinationnetwork(DCN):Towardsaccuratediag-</tspan><tspan y="-226.18405" x="114.304 121.776 128.50678 133.81488 137.55686 147.34816 153.88765 161.35965 173.31485 177.05683 183.18984 188.49794 192.23992 198.97069 210.92589 216.234 222.367 229.09778 240.31175 246.44477 253.54616 258.78254 265.32203 270.5584 274.30039 281.03117 292.9864 299.71717 308.31297 318.03254 327.76408 337.926 342.9352 353.2406 357.72383 364.4546 375.66859 383.14057 388.44868 392.19065 399.66267 410.87666 420.59623 434.4284 438.17039 449.38438 455.92387 462.65464 468.78767">nosisandlesionsegmentationofCOVID-19usingCTimages</tspan></text>
<text xml:space="preserve" transform="matrix(1 0 -0 1 0 841.89)" font-size="7.9701" font-family="CMR8"><tspan y="-206.75606" x="114.304 120.297519 127.590167 134.1655 138.39762 143.5702 150.21727 154.44939 158.6815 163.8541 168.20577 170.55695 174.78907 179.49143 184.43289 191.48642 196.18878 200.89115 206.06374 211.23633 215.93869 220.1708 224.87317 229.10529 233.80765 236.15883 240.39095 247.44448 251.79615 254.14733 258.37947 263.08183 270.13536 273.89726 280.01829 284.2504 286.60157">ByKaiGao,JianpoSu,ZhongbiaoJiangetal.</tspan><tspan y="-192.31107" x="114.304 120.41707 124.8883 128.17995 131.4716 136.17397 139.51345 141.86463 146.09674 150.32886 155.03122 159.26334 161.61452 163.9657 168.19782 171.49744 175.72956 179.96167 184.18582 188.41794 190.76912 195.00124 199.23336 203.46547 207.69759 211.9297 214.51999 216.87117 223.92472 227.6866 232.38896 234.74015 238.97226 241.32344 245.55556 249.78768 254.01979 258.25193 260.6031 264.8352 269.06733 273.29945 277.53157 281.76368 288.8172">(https://doi.org/10.1016/j.media.2020.101836)</tspan><tspan y="-177.86507" x="114.304 122.305988 128.41905 132.65117 135.00235 137.35353 141.11542 145.34754 152.8713 157.10343 163.46356 166.51612 170.97937 174.27103 178.03292 180.3841 182.73528 185.08646 189.31858 193.08046 197.78282 201.54471 209.07645 213.77881 217.5407 219.89188 223.65377 228.35613 232.11801 239.64975 243.88187 248.58423 257.0485 262.4602 266.2221 269.7449 274.44728 279.14964 283.38175 285.7329 289.96504 294.19715 297.959 304.31916 310.66337 314.89549 318.18714 320.5383 324.77043 329.47279 333.7049 339.81797 346.16218 350.86454 353.2157 357.45579 361.21769 364.5173 367.85679 370.20796 373.2605 381.5016 385.7337 392.08589 398.54963 402.31153 404.9018 408.6637 413.36607 416.70555 424.2373 429.64103 433.40293 436.9337 441.63606 446.3384 450.57054 452.9217 457.1538 461.38594 465.1478 471.49995 477.613 482.31538 486.5475 491.24986 495.48197 498.82145 503.5238 507.75593">1CollegeofIntelligenceScienceandTechnology,NationalUniversityofDefenseTechnology,Changsha,</tspan><tspan y="-163.41907" x="114.304 120.6482 125.35056 130.05292 134.28504 138.9874 144.15999 150.27306 154.97542 157.3266 162.02896">Hunan,China</tspan><tspan y="-148.97307" x="114.304 121.357547 127.8213 131.58319 136.28556 140.51767 143.81729 147.10895 154.16249 157.92438 162.3956 168.50867 172.74079 178.15248 184.3851 188.61722 193.31958 195.67076 199.90288 202.25406 206.48618 210.71829 214.48018 219.65277 225.76584 230.4682 232.81938 236.119 243.65076 249.99497 252.34615 256.57829 261.28065 265.51277 269.74488 276.7984 283.1426 287.37474 290.7142 295.41658 297.76774 301.0594 305.2915 307.64268 312.81526 318.9283 322.69023 327.16145 330.4531 333.75273 337.98484 343.1574 347.85978 352.0919 356.79426 360.0859 367.60969 373.9539 378.65626 381.00743 385.2475 389.0094 392.30903 395.6485 397.99967 401.05223 404.82209 409.99467 416.10774 420.8101 425.0422 429.74458 433.97669 437.31617 442.01853 446.25065 451.42323 457.76744 462.4698 467.17216 471.40428 476.10664 481.2792 487.39228 492.09465 494.4458 499.14817">2DepartmentofRadiology,ThirdXiangyaHospital,CentralSouthUniversity,Changsha,Hunan,China</tspan><tspan y="-134.52707" x="114.304 121.357547 127.8213 131.58319 136.28556 140.51767 143.81729 147.10895 154.16249 157.92438 162.3956 168.50867 172.74079 178.15248 184.3851 188.61722 193.31958 195.67076 199.90288 202.25406 206.48618 210.71829 214.48018 219.65277 224.35514 228.11702 231.88687 236.11103 240.81339 248.34514 254.68933 257.0405 261.2726 265.97499 270.2071 274.4392 281.49275 287.83695 292.06907 295.40855 300.1109 302.46208 305.75373 309.98585 312.337 317.50959 323.62266 327.38456 331.85578 335.14744 338.44706 342.67918 347.85176 352.5541 356.78623 361.4886 364.78025 372.30403 378.64823 383.3506 385.70176 389.94184 393.70375 397.00337 400.34284 402.694 405.74656 409.51643 414.689 420.80207 425.50444 429.73655 434.4389 438.67103 442.0105 446.71287 450.94499 456.11756 462.46177 467.16413 471.8665 476.0986 480.80097 485.97355 492.0866 496.78898 499.14015 503.8425">3DepartmentofRadiology,SecondXiangyaHospital,CentralSouthUniversity,Changsha,Hunan,China</tspan><tspan y="-120.08107" x="114.304 121.3416 127.454669 131.68679 134.03797 136.38915 140.15103 144.38315 150.95052 155.18264 160.5784 166.69147 170.92359 177.97713 182.67949 187.38185 190.67351 194.4354 200.5405 205.24286 209.00475 211.35593 215.11782 219.82018 223.58206 230.14943 234.38155 239.08391 246.59175 252.00345 255.76534 259.28813 263.99049 268.69285 272.92497 275.27613 279.50825 283.74037 287.51023 292.66688 299.01109 303.2432 306.53486 308.88603 313.11814 317.8205 322.0526 327.20927 333.55348 338.25584 340.607 344.84709 348.60899 351.9086 355.24809 357.59925 360.6518 367.9285 372.1606 377.55638 384.0201 387.782 390.37229 394.1342 398.83656 402.17604 408.7434 414.15513 417.91703 421.43983 426.14219 430.84455 435.07667 437.42784 441.65995 445.89207 449.66194 454.81858 460.93165 465.634 469.86613 474.56849 478.8006 482.14009 486.84245 491.07456 496.23918 502.58338 507.28575">4CollegeofComputerScienceandTechnology,NationalUniversityofDefenseTechnology,Changsha,Hu-</tspan><tspan y="-105.63607" x="114.304 119.00636 123.23849 127.94085 133.11344 139.2265 143.92887 146.28005 150.9824">nan,China</tspan></text>
<text xml:space="preserve" transform="matrix(1 0 -0 1 0 841.89)" font-size="11.9552" font-family="CMR12"><tspan y="-40.978075" x="292.76 296.0118 299.2636">iii</tspan></text>
</g>
</svg>
