<?xml version="1.0" encoding="UTF-8" standalone="no"?>
<!DOCTYPE svg PUBLIC "-//W3C//DTD SVG 1.1//EN" "http://www.w3.org/Graphics/SVG/1.1/DTD/svg11.dtd">
<svg xmlns="http://www.w3.org/2000/svg" xmlns:xlink="http://www.w3.org/1999/xlink" version="1.1" width="595.276pt" height="841.89pt" viewBox="0 0 595.276 841.89">
<g enable-background="new">
<text xml:space="preserve" transform="matrix(1 0 -0 1 0 841.89)" font-size="11.9552" font-family="CMR12"><tspan y="-720.214" x="93.494 99.35205 105.2101">11.</tspan></text>
<text xml:space="preserve" transform="matrix(1 0 -0 1 0 841.89)" font-size="11.9552" font-family="CMBX12" font-weight="bold"><tspan y="-720.214" x="114.304 124.33441 130.8739 138.3459 142.08788 152.54868 162.7106 168.20999 173.44637 177.18834 180.92435 184.66034 190.63794 194.37992 200.9194 207.65018 212.65941 219.7608 224.99718 231.13019 234.87216 238.61414 242.35611 249.08689 255.2199 262.6919 268.6695 277.79133 285.2633 291.99409 295.73606 303.20808 308.44447 312.18644 318.9172 326.38923 334.68614 338.4281 348.8889 358.41719 367.2401 373.7796 381.2516 388.72358 394.8566 406.0706 409.81257 418.77897 426.25099 435.59996 443.07197 452.1938 461.91337 471.63294 481.79487 486.80409 497.10948 503.84025 510.571">RapidArtificialIntelligenceSolutionsinaPandemic-TheCOVID19-</tspan><tspan y="-705.768" x="114.304 121.03478 132.24877 140.33048 147.80248 155.27448 166.48845 176.20803 190.04019 198.1219 204.25492 209.56302 213.305 220.03577 231.99097 239.46297 245.59598 252.32675 263.54075 269.67378 276.77516 282.01155 288.55104 293.7874 297.5294 304.26017 316.2154 325.93498 333.40699 339.94648 343.68846 347.43043 353.56346 361.03547 367.76625">20LungCTLesionSegmentationChallenge</tspan></text>
<text xml:space="preserve" transform="matrix(1 0 -0 1 0 841.89)" font-size="7.9701" font-family="CMR8"><tspan y="-686.341" x="114.304 120.297519 127.590167 133.93436 138.16648 140.51766 144.74977 148.51166 154.63269 160.86531 166.04589 171.21848 173.56966 178.04088 182.74324 189.32654 195.67075 203.19452 207.42664 213.5397 217.30159 219.65277">ByHolgerR,ZiyueXuatel.</tspan><tspan y="-671.895" x="114.304 120.41707 124.8883 128.17995 131.4716 136.17397 139.51345 141.86463 146.09674 150.32886 154.56098 157.8606 162.33182 164.683 169.15422 171.5054 175.73752 179.03714 183.26129 187.49341 192.43488 197.13724 199.72753 203.95964 208.19176 212.42388 216.65599 220.8881 223.23929 227.4714 231.70352 235.93564 240.16776 244.39987 246.75106 251.68456 256.3869 261.79859">(https://arxiv.org/pdf/2105.01218.pdf)</tspan><tspan y="-657.45" x="114.304 121.357547 127.701747 134.04595 137.0985 143.56224 146.61479 152.95899 158.13956 164.13307 167.89496 171.18662 175.88898 179.65087 182.99034 187.6927 191.92482 197.09741 204.85233 211.31607 216.48867 222.83286 227.53522">1NVIDIA,Bethesda,MD,USA</tspan><tspan y="-643.004" x="114.304 121.43724 126.1396 130.84197 134.60385 136.963 141.42626 149.0377 154.2103 158.20331 162.44339 166.20528 173.80876 176.86132 181.56368 184.90316 188.19481 190.54599 193.83765 198.54001 201.83167 208.50264 211.09293 215.32505 221.52579 227.05704 230.81893 235.52129 237.87247 242.10459 245.39624 248.69586 251.04705 257.71006 262.4124 267.11479 270.4144 274.6465 276.99769 280.75959 284.9917 290.25196 293.3045 298.00688 302.70924 306.70225 310.70323 314.93534 318.227 320.57817 324.81028 329.51264 334.78883 340.9019 345.60426 347.9554 350.30659 355.00895 358.30857 362.07048 366.77284 369.124 375.37257 381.71678 385.94889 389.24055 391.5917 395.82383 400.52619 404.7583 410.0106 416.3548 420.5869 423.9264 428.62876 430.97993 434.27159 438.5037 440.85487 446.13105 454.12507 458.35719 461.69667 466.39903 468.75019 473.45256 477.68467 480.97633 485.20845 489.90284 495.18699 501.65074 507.7638">2SheikhZayedInstituteforPediatricSurgicalInnovation,Children&#x2019;sNationalHospital,Washington,DC,</tspan><tspan y="-628.55807" x="114.304 120.6482 125.35056">USA</tspan><tspan y="-614.11209" x="114.304 121.357547 127.8213 130.17247 134.64369 136.99488 140.33435 142.68553 146.91765 154.44142 158.67354 164.08524 170.55695 172.90813 177.14025 181.3644 186.06676 190.29888 193.63835 196.93001 199.28119 205.87247 208.92502 215.97856 220.21068 224.4428 226.79398 231.49634 238.54987 242.78199 247.48435 255.00812 261.24073 265.47285 270.1752 272.52638 276.75849 279.10966 283.34178 287.57389 291.33576 296.50834 302.6214 307.32377 309.67494 312.03407 316.73643 320.02809 323.79795 328.49235 330.85148 337.01237 343.35658 347.58869 350.88035 353.2315 357.46363 362.166 366.3981 371.57069 377.9149 382.147 385.48649 390.18885 392.54 395.83168 400.06379 402.41496 407.58753 415.58155 419.81367 423.15315 427.8555 430.20668 434.90904 439.13319 442.42485 446.65696 451.3593 456.53987 463.0036 469.11668 474.28926 480.63346 485.33583">3DivisionofDiagnosticImagingandRadiology,Children&#x2019;sNationalHospital,Washington,DC,USA</tspan><tspan y="-599.6661" x="114.304 121.357547 127.701747 130.75429 139.33808 145.68228 150.38465 155.087 157.43819 159.79734 163.55922 171.083 177.19606 181.42818 188.48172 193.18408 197.88645 201.1781 204.93999 211.06102 217.40522 219.7564 223.09587 225.44705 229.67917 237.20294 242.49509 246.7272 251.42957 256.60218 263.24925 267.01115 270.31077 277.3643 281.5964 289.12019 295.23326 299.46537 304.16773 307.92964 311.69154 317.81257 324.04518 327.80708 331.14656 334.9164 339.14057 342.4402 345.97096 353.49473 359.6078 363.3697 367.8409 371.13258 374.89448 381.0155 384.30717 390.7709 397.34626 402.86955 408.04216 411.3338 416.50639 422.8506 426.6125 428.96366 433.66603 437.42793 439.77909 444.72056 448.48246 451.78208 456.0142 461.18678 467.83384 471.59574 474.89537 481.94889 486.181 490.64427">4HIPAppliedComputerVisionLab,GermanCancerResearchCenter(DKFZ),Heidelberg,Germany</tspan></text>
<text xml:space="preserve" transform="matrix(1 0 -0 1 0 841.89)" font-size="11.9552" font-family="CMR12"><tspan y="-551.34707" x="114.304 123.07912 128.61438 134.79521 138.04703 144.55066 155.87224 161.07276 164.32059 167.56842 170.8282 176.02872 179.28054 184.48105 190.64994 200.6684 203.92021 210.42385 216.92748 222.78553 232.86376 236.11557 241.31609 245.93079 249.1826 255.04065 267.0078 273.51145 276.76325 282.6213 288.47938 294.983 300.84107 305.45579 310.0107 313.2625 323.92655 328.48149 334.66233 340.5204 343.7722 353.85044 361.97999 367.83805 377.9163 384.41993 389.62043 394.82093 406.7881 412.64616 421.6843 426.23924 432.74287 443.4069 449.91053 455.7686 462.27223 472.29069 476.8456 483.34925 488.54975 500.5169 503.7687">Havingefficientlungslesiondiagnostictoolswasneedofthehourthenin</tspan><tspan y="-536.90206" x="114.304 120.16205 126.020099 131.87815 137.73619 148.26873 154.77236 165.22119 175.68199 178.9338 185.11466 189.66959 194.8701 199.42504 205.91672 211.77477 216.3297 219.58152 225.43956 231.94319 237.80124 245.6558 250.53354 257.0252 262.88328 266.13508 269.38688 274.58738 281.091 286.94908 296.75233 304.88188 310.72798 319.94544 325.8035 330.35844 336.2165 342.07456 348.5782 351.83 357.0305 362.231 373.3254 379.18348 385.6871 396.78153 401.33647 407.19453 411.80924 422.59284 430.72239 436.56849 445.78596 450.34089 460.78974 467.29338 472.49388 477.10859 480.36039 486.21846 497.32484 506.09996">2020.SoainternationalchallengewasorganizedandtaskwastodesignAI</tspan><tspan y="-522.45608" x="114.304 124.05945 129.25997 133.8149 140.31853 146.49936 153.00299 161.79006 165.36466 171.2227 179.96196 184.50495 191.00858 200.39342 206.25147 212.7551 217.31003 223.16808 232.92353 238.78157 243.3365 246.58832 255.9612 262.4648 267.6653 272.22026 277.42076 282.62126 287.17619 290.42799 296.28605 306.96205 312.8201 319.32374 329.99974 336.18058 342.6842 348.54228 354.7231 359.27806 362.52986 365.7757 369.03349 374.23399 380.09205 384.64698 387.89878 393.74488 404.43284 410.2909 418.03788 426.4902 435.27729 444.0524 448.27259 457.2151 461.1125 466.97056 477.00099 480.25279 485.45329 490.068 493.3198 499.17787 505.6815">methodsfortheautomaticdetectionandquantificationofCOVID-19lesions</tspan><tspan y="-508.01005" x="114.304 117.55582 128.00467 132.8824 139.38603 144.58655 149.20125 157.7014 166.15373 174.60607 181.81505 187.6731 193.53115 199.38919 209.19246 213.74739 218.9479 224.80596 234.5614 243.12133 247.67626 253.85709 259.71516 269.85319 276.3568 282.21488 286.75785 295.26997 301.12803 307.63166 318.0805 324.58415 329.78465 334.33958 343.4853 349.34336 353.8983 363.05598 367.6109 374.11454 383.26026 386.83488 392.69294 397.89344 402.44837 408.952 414.81007 422.00709 425.25294 428.5107 435.01435 441.51799 444.76979 451.2734 457.13148 465.6914 469.26603 473.82096 479.67903 493.37968 497.9346 503.79267">inchestCT.1096teamstookpartandherearethefactualfindingsfromtop</tspan><tspan y="-493.56404" x="114.304 120.16205 129.9175 138.36983 141.62165 148.12528 154.6289 159.82942 164.38436 168.99906 176.16022 180.77492 185.32985 191.1879 195.74283 200.94335 211.34438 218.17079 223.3713 226.62313 232.15839 240.61072">10winners,statedbelow:</tspan></text>
<text xml:space="preserve" transform="matrix(1 0 -0 1 0 841.89)" font-size="11.9552" font-family="SFRM1200"><tspan y="-469.15605" x="128.353">&#x2022;</tspan></text>
<text xml:space="preserve" transform="matrix(1 0 -0 1 0 841.89)" font-size="11.9552" font-family="CMR12"><tspan y="-469.15605" x="140.05699 148.8321 152.08393 160.48844 165.03142 170.23194 176.08998 185.84543 195.61283 202.11646 206.67139 209.9232 213.17502 216.42684 221.62735 226.82787 238.47223 247.24735 251.14475 259.91987 265.12037 274.82798 283.2803 286.5321 291.08705 302.7314 307.34614 313.2042 322.95964 333.30088 338.83616 344.6942 349.24916 352.50096 358.359 362.91395 366.16575 372.0238 378.52745 383.14216 391.84553 398.5165 405.02015 409.57508 414.13 420.63365 425.83415 435.52983 445.28526 451.1433 455.69825 466.05143 472.55506 479.04673 487.8338 491.71925 500.50633 505.69486">AllteamsutilizedU-Netwithsomevariations,FurthermorennU-Net</tspan><tspan y="-454.71003" x="140.05699 144.67169 151.17533 156.71059 165.16292 175.32485 185.08029 190.93834 195.55304 203.76627 208.38097 214.8846 220.08512 225.28563 230.48615 235.10085 239.71555 248.09615 258.81996 264.678 269.29273 277.50596 283.364 290.59693 295.15187 300.35237 306.21043 315.96586 324.23887 328.7938 334.65187 339.2068 345.06486 350.26536 354.82029 360.02079 370.19468 374.8094 380.0099 385.86796 395.62339 400.81193 406.99278 411.5477 417.40577 421.9607 425.2125 431.07057 441.23249 447.7361 450.9879 455.54286 460.74336 465.94386 470.49879 473.75059 483.60169 492.05403 498.55766 501.80946 505.0493">shownmostsuccess.Mostofteamstargetedsegmentationdirectlywhile</tspan><tspan y="-440.264" x="140.05699 143.63159 148.8321 161.18184 165.73677 171.59482 176.14975 182.0078 187.20832 191.76325 196.96376 207.37674 213.23479 219.73842 224.29335 230.78504 237.28867 241.8436 246.4583">fewtargetedoutputs.</tspan></text>
<text xml:space="preserve" transform="matrix(1 0 -0 1 0 841.89)" font-size="11.9552" font-family="SFRM1200"><tspan y="-420.837" x="128.353">&#x2022;</tspan></text>
<text xml:space="preserve" transform="matrix(1 0 -0 1 0 841.89)" font-size="11.9552" font-family="CMR12"><tspan y="-420.837" x="140.05699 148.8321 155.33574 165.73677 169.31137 175.16942 183.6337 186.88552 192.74356 197.35826 205.87036 209.44496 215.9486 222.45223 227.65274 232.20767 235.45949 241.31754 251.71857 260.66108 263.91288 269.11338 278.22325 281.47505 287.3331 291.9478 300.45994 308.58949 314.44755 322.95967 326.53428 332.39234 338.89598 345.3996 355.80064 361.6587 364.9105 374.66593 380.524 385.1387 393.603 396.8548 407.25584 412.45634 418.3144 423.5149 428.06983 438.14808 442.7628 449.26643 455.77006 465.52549 468.77729 473.392 478.0067 481.2585 487.11659 493.6202">AndforlossfunctionDicelosswasfoundalmostineverysubmission.</tspan></text>
<text xml:space="preserve" transform="matrix(1 0 -0 1 0 841.89)" font-size="11.9552" font-family="CMR12"><tspan y="-40.977998" x="291.297 297.47785 300.72966">vii</tspan></text>
</g>
</svg>
